<svg width="328" height="453" viewBox="0 0 328 453" fill="none" xmlns="http://www.w3.org/2000/svg">
<mask id="mask0_4_616" style="mask-type:alpha" maskUnits="userSpaceOnUse" x="47" y="115" width="220" height="220">
<circle cx="157" cy="225" r="110" fill="#D9D9D9"/>
</mask>
<g mask="url(#mask0_4_616)">
<circle cx="161.344" cy="114.766" r="3.17003" transform="rotate(30 161.344 114.766)" fill="#6E1B35"/>
<circle cx="147.61" cy="114.701" r="3.17003" transform="rotate(-30 147.61 114.701)" fill="#6E1B35"/>
<circle cx="133.877" cy="114.791" r="3.17003" transform="rotate(-60 133.877 114.791)" fill="#6E1B35"/>
<circle cx="175.076" cy="114.701" r="3.17003" transform="rotate(60 175.076 114.701)" fill="#6E1B35"/>
<circle cx="120.411" cy="114.754" r="3.17003" transform="rotate(-70 120.411 114.754)" fill="#6E1B35"/>
<circle cx="188.541" cy="114.751" r="3.17003" transform="rotate(70 188.541 114.751)" fill="#6E1B35"/>
<circle cx="107.394" cy="114.786" r="3.17003" transform="rotate(-75 107.394 114.786)" fill="#6E1B35"/>
<circle cx="201.559" cy="114.761" r="3.17003" transform="rotate(75 201.559 114.761)" fill="#6E1B35"/>
<circle cx="94.6798" cy="114.715" r="3.17003" transform="rotate(-78 94.6798 114.715)" fill="#6E1B35"/>
<circle cx="214.273" cy="114.703" r="3.17003" transform="rotate(78 214.273 114.703)" fill="#6E1B35"/>
<circle cx="82.1762" cy="114.712" r="3.17003" transform="rotate(-80 82.1762 114.712)" fill="#6E1B35"/>
<circle cx="226.776" cy="114.741" r="3.17003" transform="rotate(80 226.776 114.741)" fill="#6E1B35"/>
<circle cx="69.8258" cy="114.748" r="3.17003" transform="rotate(-81.4286 69.8258 114.748)" fill="#6E1B35"/>
<circle cx="239.129" cy="114.738" r="3.17003" transform="rotate(81.4286 239.129 114.738)" fill="#6E1B35"/>
<circle cx="57.5899" cy="114.744" r="3.17003" transform="rotate(-82.5 57.5899 114.744)" fill="#6E1B35"/>
<circle cx="251.365" cy="114.752" r="3.17003" transform="rotate(82.5 251.365 114.752)" fill="#6E1B35"/>
<circle cx="45.4424" cy="114.692" r="3.17003" transform="rotate(-83.3333 45.4424 114.692)" fill="#6E1B35"/>
<circle cx="263.508" cy="114.712" r="3.17003" transform="rotate(83.3333 263.508 114.712)" fill="#6E1B35"/>
<circle cx="161.344" cy="132.266" r="3.17003" transform="rotate(30 161.344 132.266)" fill="#6E1B35"/>
<circle cx="147.61" cy="132.201" r="3.17003" transform="rotate(-30 147.61 132.201)" fill="#6E1B35"/>
<circle cx="133.877" cy="132.291" r="3.17003" transform="rotate(-60 133.877 132.291)" fill="#6E1B35"/>
<circle cx="175.076" cy="132.201" r="3.17003" transform="rotate(60 175.076 132.201)" fill="#6E1B35"/>
<circle cx="120.411" cy="132.254" r="3.17003" transform="rotate(-70 120.411 132.254)" fill="#6E1B35"/>
<circle cx="188.539" cy="132.251" r="3.17003" transform="rotate(70 188.539 132.251)" fill="#6E1B35"/>
<circle cx="107.394" cy="132.286" r="3.17003" transform="rotate(-75 107.394 132.286)" fill="#6E1B35"/>
<circle cx="201.559" cy="132.261" r="3.17003" transform="rotate(75 201.559 132.261)" fill="#6E1B35"/>
<circle cx="94.6798" cy="132.215" r="3.17003" transform="rotate(-78 94.6798 132.215)" fill="#6E1B35"/>
<circle cx="214.273" cy="132.203" r="3.17003" transform="rotate(78 214.273 132.203)" fill="#6E1B35"/>
<circle cx="82.1762" cy="132.212" r="3.17003" transform="rotate(-80 82.1762 132.212)" fill="#6E1B35"/>
<circle cx="226.776" cy="132.241" r="3.17003" transform="rotate(80 226.776 132.241)" fill="#6E1B35"/>
<circle cx="69.8258" cy="132.248" r="3.17003" transform="rotate(-81.4286 69.8258 132.248)" fill="#6E1B35"/>
<circle cx="239.127" cy="132.238" r="3.17003" transform="rotate(81.4286 239.127 132.238)" fill="#6E1B35"/>
<circle cx="57.5899" cy="132.244" r="3.17003" transform="rotate(-82.5 57.5899 132.244)" fill="#6E1B35"/>
<circle cx="251.365" cy="132.252" r="3.17003" transform="rotate(82.5 251.365 132.252)" fill="#6E1B35"/>
<circle cx="45.4424" cy="132.192" r="3.17003" transform="rotate(-83.3333 45.4424 132.192)" fill="#6E1B35"/>
<circle cx="263.508" cy="132.212" r="3.17003" transform="rotate(83.3333 263.508 132.212)" fill="#6E1B35"/>
<circle cx="161.344" cy="149.763" r="3.17003" transform="rotate(30 161.344 149.763)" fill="#6E1B35"/>
<circle cx="147.61" cy="149.699" r="3.17003" transform="rotate(-30 147.61 149.699)" fill="#6E1B35"/>
<circle cx="133.877" cy="149.788" r="3.17003" transform="rotate(-60 133.877 149.788)" fill="#6E1B35"/>
<circle cx="175.076" cy="149.699" r="3.17003" transform="rotate(60 175.076 149.699)" fill="#6E1B35"/>
<circle cx="120.411" cy="149.751" r="3.17003" transform="rotate(-70 120.411 149.751)" fill="#6E1B35"/>
<circle cx="188.539" cy="149.749" r="3.17003" transform="rotate(70 188.539 149.749)" fill="#6E1B35"/>
<circle cx="107.394" cy="149.785" r="3.17003" transform="rotate(-75 107.394 149.785)" fill="#6E1B35"/>
<circle cx="201.559" cy="149.759" r="3.17003" transform="rotate(75 201.559 149.759)" fill="#6E1B35"/>
<circle cx="94.6798" cy="149.712" r="3.17003" transform="rotate(-78 94.6798 149.712)" fill="#6E1B35"/>
<circle cx="214.273" cy="149.7" r="3.17003" transform="rotate(78 214.273 149.7)" fill="#6E1B35"/>
<circle cx="82.1762" cy="149.709" r="3.17003" transform="rotate(-80 82.1762 149.709)" fill="#6E1B35"/>
<circle cx="226.776" cy="149.739" r="3.17003" transform="rotate(80 226.776 149.739)" fill="#6E1B35"/>
<circle cx="69.8258" cy="149.746" r="3.17003" transform="rotate(-81.4286 69.8258 149.746)" fill="#6E1B35"/>
<circle cx="239.127" cy="149.737" r="3.17003" transform="rotate(81.4286 239.127 149.737)" fill="#6E1B35"/>
<circle cx="57.5899" cy="149.741" r="3.17003" transform="rotate(-82.5 57.5899 149.741)" fill="#6E1B35"/>
<circle cx="251.365" cy="149.75" r="3.17003" transform="rotate(82.5 251.365 149.75)" fill="#6E1B35"/>
<circle cx="45.4424" cy="149.689" r="3.17003" transform="rotate(-83.3333 45.4424 149.689)" fill="#6E1B35"/>
<circle cx="263.508" cy="149.71" r="3.17003" transform="rotate(83.3333 263.508 149.71)" fill="#6E1B35"/>
<circle cx="161.344" cy="167.261" r="3.17003" transform="rotate(30 161.344 167.261)" fill="#6E1B35"/>
<circle cx="147.61" cy="167.197" r="3.17003" transform="rotate(-30 147.61 167.197)" fill="#6E1B35"/>
<circle cx="133.877" cy="167.286" r="3.17003" transform="rotate(-60 133.877 167.286)" fill="#6E1B35"/>
<circle cx="175.076" cy="167.197" r="3.17003" transform="rotate(60 175.076 167.197)" fill="#6E1B35"/>
<circle cx="120.411" cy="167.249" r="3.17003" transform="rotate(-70 120.411 167.249)" fill="#6E1B35"/>
<circle cx="188.539" cy="167.247" r="3.17003" transform="rotate(70 188.539 167.247)" fill="#6E1B35"/>
<circle cx="107.394" cy="167.283" r="3.17003" transform="rotate(-75 107.394 167.283)" fill="#6E1B35"/>
<circle cx="201.559" cy="167.257" r="3.17003" transform="rotate(75 201.559 167.257)" fill="#6E1B35"/>
<circle cx="94.6798" cy="167.21" r="3.17003" transform="rotate(-78 94.6798 167.21)" fill="#6E1B35"/>
<circle cx="214.273" cy="167.198" r="3.17003" transform="rotate(78 214.273 167.198)" fill="#6E1B35"/>
<circle cx="82.1762" cy="167.207" r="3.17003" transform="rotate(-80 82.1762 167.207)" fill="#6E1B35"/>
<circle cx="226.776" cy="167.237" r="3.17003" transform="rotate(80 226.776 167.237)" fill="#6E1B35"/>
<circle cx="69.8258" cy="167.244" r="3.17003" transform="rotate(-81.4286 69.8258 167.244)" fill="#6E1B35"/>
<circle cx="239.127" cy="167.235" r="3.17003" transform="rotate(81.4286 239.127 167.235)" fill="#6E1B35"/>
<circle cx="57.5899" cy="167.239" r="3.17003" transform="rotate(-82.5 57.5899 167.239)" fill="#6E1B35"/>
<circle cx="251.365" cy="167.248" r="3.17003" transform="rotate(82.5 251.365 167.248)" fill="#6E1B35"/>
<circle cx="45.4424" cy="167.187" r="3.17003" transform="rotate(-83.3333 45.4424 167.187)" fill="#6E1B35"/>
<circle cx="263.508" cy="167.208" r="3.17003" transform="rotate(83.3333 263.508 167.208)" fill="#6E1B35"/>
<circle cx="161.344" cy="184.758" r="3.17003" transform="rotate(30 161.344 184.758)" fill="#6E1B35"/>
<circle cx="147.61" cy="184.694" r="3.17003" transform="rotate(-30 147.61 184.694)" fill="#6E1B35"/>
<circle cx="133.877" cy="184.783" r="3.17003" transform="rotate(-60 133.877 184.783)" fill="#6E1B35"/>
<circle cx="175.076" cy="184.695" r="3.17003" transform="rotate(60 175.076 184.695)" fill="#6E1B35"/>
<circle cx="120.411" cy="184.746" r="3.17003" transform="rotate(-70 120.411 184.746)" fill="#6E1B35"/>
<circle cx="188.539" cy="184.744" r="3.17003" transform="rotate(70 188.539 184.744)" fill="#6E1B35"/>
<circle cx="107.394" cy="184.78" r="3.17003" transform="rotate(-75 107.394 184.78)" fill="#6E1B35"/>
<circle cx="201.559" cy="184.754" r="3.17003" transform="rotate(75 201.559 184.754)" fill="#6E1B35"/>
<circle cx="94.6798" cy="184.707" r="3.17003" transform="rotate(-78 94.6798 184.707)" fill="#6E1B35"/>
<circle cx="214.273" cy="184.695" r="3.17003" transform="rotate(78 214.273 184.695)" fill="#6E1B35"/>
<circle cx="82.1762" cy="184.704" r="3.17003" transform="rotate(-80 82.1762 184.704)" fill="#6E1B35"/>
<circle cx="226.776" cy="184.734" r="3.17003" transform="rotate(80 226.776 184.734)" fill="#6E1B35"/>
<circle cx="69.8258" cy="184.741" r="3.17003" transform="rotate(-81.4286 69.8258 184.741)" fill="#6E1B35"/>
<circle cx="239.127" cy="184.732" r="3.17003" transform="rotate(81.4286 239.127 184.732)" fill="#6E1B35"/>
<circle cx="57.5899" cy="184.736" r="3.17003" transform="rotate(-82.5 57.5899 184.736)" fill="#6E1B35"/>
<circle cx="251.365" cy="184.745" r="3.17003" transform="rotate(82.5 251.365 184.745)" fill="#6E1B35"/>
<circle cx="45.4424" cy="184.684" r="3.17003" transform="rotate(-83.3333 45.4424 184.684)" fill="#6E1B35"/>
<circle cx="263.508" cy="184.705" r="3.17003" transform="rotate(83.3333 263.508 184.705)" fill="#6E1B35"/>
<circle cx="161.344" cy="202.257" r="3.17003" transform="rotate(30 161.344 202.257)" fill="#6E1B35"/>
<circle cx="147.61" cy="202.194" r="3.17003" transform="rotate(-30 147.61 202.194)" fill="#6E1B35"/>
<circle cx="133.877" cy="202.282" r="3.17003" transform="rotate(-60 133.877 202.282)" fill="#6E1B35"/>
<circle cx="175.076" cy="202.194" r="3.17003" transform="rotate(60 175.076 202.194)" fill="#6E1B35"/>
<circle cx="120.411" cy="202.245" r="3.17003" transform="rotate(-70 120.411 202.245)" fill="#6E1B35"/>
<circle cx="188.541" cy="202.243" r="3.17003" transform="rotate(70 188.541 202.243)" fill="#6E1B35"/>
<circle cx="107.394" cy="202.279" r="3.17003" transform="rotate(-75 107.394 202.279)" fill="#6E1B35"/>
<circle cx="201.559" cy="202.253" r="3.17003" transform="rotate(75 201.559 202.253)" fill="#6E1B35"/>
<circle cx="94.6798" cy="202.206" r="3.17003" transform="rotate(-78 94.6798 202.206)" fill="#6E1B35"/>
<circle cx="214.273" cy="202.194" r="3.17003" transform="rotate(78 214.273 202.194)" fill="#6E1B35"/>
<circle cx="82.1762" cy="202.203" r="3.17003" transform="rotate(-80 82.1762 202.203)" fill="#6E1B35"/>
<circle cx="226.776" cy="202.233" r="3.17003" transform="rotate(80 226.776 202.233)" fill="#6E1B35"/>
<circle cx="69.8258" cy="202.24" r="3.17003" transform="rotate(-81.4286 69.8258 202.24)" fill="#6E1B35"/>
<circle cx="239.129" cy="202.231" r="3.17003" transform="rotate(81.4286 239.129 202.231)" fill="#6E1B35"/>
<circle cx="57.5899" cy="202.235" r="3.17003" transform="rotate(-82.5 57.5899 202.235)" fill="#6E1B35"/>
<circle cx="251.365" cy="202.244" r="3.17003" transform="rotate(82.5 251.365 202.244)" fill="#6E1B35"/>
<circle cx="45.4424" cy="202.183" r="3.17003" transform="rotate(-83.3333 45.4424 202.183)" fill="#6E1B35"/>
<circle cx="263.508" cy="202.204" r="3.17003" transform="rotate(83.3333 263.508 202.204)" fill="#6E1B35"/>
<circle cx="161.344" cy="219.758" r="3.17003" transform="rotate(30 161.344 219.758)" fill="#6E1B35"/>
<circle cx="147.61" cy="219.695" r="3.17003" transform="rotate(-30 147.61 219.695)" fill="#6E1B35"/>
<circle cx="133.877" cy="219.783" r="3.17003" transform="rotate(-60 133.877 219.783)" fill="#6E1B35"/>
<circle cx="175.076" cy="219.695" r="3.17003" transform="rotate(60 175.076 219.695)" fill="#6E1B35"/>
<circle cx="120.411" cy="219.746" r="3.17003" transform="rotate(-70 120.411 219.746)" fill="#6E1B35"/>
<circle cx="188.541" cy="219.744" r="3.17003" transform="rotate(70 188.541 219.744)" fill="#6E1B35"/>
<circle cx="107.394" cy="219.78" r="3.17003" transform="rotate(-75 107.394 219.78)" fill="#6E1B35"/>
<circle cx="201.559" cy="219.755" r="3.17003" transform="rotate(75 201.559 219.755)" fill="#6E1B35"/>
<circle cx="94.6798" cy="219.707" r="3.17003" transform="rotate(-78 94.6798 219.707)" fill="#6E1B35"/>
<circle cx="214.273" cy="219.696" r="3.17003" transform="rotate(78 214.273 219.696)" fill="#6E1B35"/>
<circle cx="82.1762" cy="219.704" r="3.17003" transform="rotate(-80 82.1762 219.704)" fill="#6E1B35"/>
<circle cx="226.776" cy="219.734" r="3.17003" transform="rotate(80 226.776 219.734)" fill="#6E1B35"/>
<circle cx="69.8258" cy="219.739" r="3.17003" transform="rotate(-81.4286 69.8258 219.739)" fill="#6E1B35"/>
<circle cx="239.129" cy="219.732" r="3.17003" transform="rotate(81.4286 239.129 219.732)" fill="#6E1B35"/>
<circle cx="57.5899" cy="219.736" r="3.17003" transform="rotate(-82.5 57.5899 219.736)" fill="#6E1B35"/>
<circle cx="251.365" cy="219.745" r="3.17003" transform="rotate(82.5 251.365 219.745)" fill="#6E1B35"/>
<circle cx="45.4424" cy="219.684" r="3.17003" transform="rotate(-83.3333 45.4424 219.684)" fill="#6E1B35"/>
<circle cx="263.508" cy="219.705" r="3.17003" transform="rotate(83.3333 263.508 219.705)" fill="#6E1B35"/>
<circle cx="161.344" cy="237.256" r="3.17003" transform="rotate(30 161.344 237.256)" fill="#6E1B35"/>
<circle cx="147.61" cy="237.193" r="3.17003" transform="rotate(-30 147.61 237.193)" fill="#6E1B35"/>
<circle cx="133.877" cy="237.281" r="3.17003" transform="rotate(-60 133.877 237.281)" fill="#6E1B35"/>
<circle cx="175.076" cy="237.193" r="3.17003" transform="rotate(60 175.076 237.193)" fill="#6E1B35"/>
<circle cx="120.411" cy="237.244" r="3.17003" transform="rotate(-70 120.411 237.244)" fill="#6E1B35"/>
<circle cx="188.539" cy="237.242" r="3.17003" transform="rotate(70 188.539 237.242)" fill="#6E1B35"/>
<circle cx="107.394" cy="237.278" r="3.17003" transform="rotate(-75 107.394 237.278)" fill="#6E1B35"/>
<circle cx="201.559" cy="237.252" r="3.17003" transform="rotate(75 201.559 237.252)" fill="#6E1B35"/>
<circle cx="94.6798" cy="237.205" r="3.17003" transform="rotate(-78 94.6798 237.205)" fill="#6E1B35"/>
<circle cx="214.273" cy="237.193" r="3.17003" transform="rotate(78 214.273 237.193)" fill="#6E1B35"/>
<circle cx="82.1762" cy="237.202" r="3.17003" transform="rotate(-80 82.1762 237.202)" fill="#6E1B35"/>
<circle cx="226.776" cy="237.232" r="3.17003" transform="rotate(80 226.776 237.232)" fill="#6E1B35"/>
<circle cx="69.8258" cy="237.239" r="3.17003" transform="rotate(-81.4286 69.8258 237.239)" fill="#6E1B35"/>
<circle cx="239.127" cy="237.23" r="3.17003" transform="rotate(81.4286 239.127 237.23)" fill="#6E1B35"/>
<circle cx="57.5899" cy="237.234" r="3.17003" transform="rotate(-82.5 57.5899 237.234)" fill="#6E1B35"/>
<circle cx="251.365" cy="237.243" r="3.17003" transform="rotate(82.5 251.365 237.243)" fill="#6E1B35"/>
<circle cx="45.4424" cy="237.182" r="3.17003" transform="rotate(-83.3333 45.4424 237.182)" fill="#6E1B35"/>
<circle cx="263.508" cy="237.203" r="3.17003" transform="rotate(83.3333 263.508 237.203)" fill="#6E1B35"/>
<circle cx="161.344" cy="254.753" r="3.17003" transform="rotate(30 161.344 254.753)" fill="#6E1B35"/>
<circle cx="147.61" cy="254.69" r="3.17003" transform="rotate(-30 147.61 254.69)" fill="#6E1B35"/>
<circle cx="133.877" cy="254.778" r="3.17003" transform="rotate(-60 133.877 254.778)" fill="#6E1B35"/>
<circle cx="175.076" cy="254.69" r="3.17003" transform="rotate(60 175.076 254.69)" fill="#6E1B35"/>
<circle cx="120.411" cy="254.741" r="3.17003" transform="rotate(-70 120.411 254.741)" fill="#6E1B35"/>
<circle cx="188.539" cy="254.739" r="3.17003" transform="rotate(70 188.539 254.739)" fill="#6E1B35"/>
<circle cx="107.394" cy="254.775" r="3.17003" transform="rotate(-75 107.394 254.775)" fill="#6E1B35"/>
<circle cx="201.559" cy="254.75" r="3.17003" transform="rotate(75 201.559 254.75)" fill="#6E1B35"/>
<circle cx="94.6798" cy="254.702" r="3.17003" transform="rotate(-78 94.6798 254.702)" fill="#6E1B35"/>
<circle cx="214.273" cy="254.691" r="3.17003" transform="rotate(78 214.273 254.691)" fill="#6E1B35"/>
<circle cx="82.1762" cy="254.699" r="3.17003" transform="rotate(-80 82.1762 254.699)" fill="#6E1B35"/>
<circle cx="226.776" cy="254.729" r="3.17003" transform="rotate(80 226.776 254.729)" fill="#6E1B35"/>
<circle cx="69.8258" cy="254.736" r="3.17003" transform="rotate(-81.4286 69.8258 254.736)" fill="#6E1B35"/>
<circle cx="239.127" cy="254.727" r="3.17003" transform="rotate(81.4286 239.127 254.727)" fill="#6E1B35"/>
<circle cx="57.5899" cy="254.731" r="3.17003" transform="rotate(-82.5 57.5899 254.731)" fill="#6E1B35"/>
<circle cx="251.365" cy="254.74" r="3.17003" transform="rotate(82.5 251.365 254.74)" fill="#6E1B35"/>
<circle cx="45.4424" cy="254.68" r="3.17003" transform="rotate(-83.3333 45.4424 254.68)" fill="#6E1B35"/>
<circle cx="263.508" cy="254.7" r="3.17003" transform="rotate(83.3333 263.508 254.7)" fill="#6E1B35"/>
<circle cx="161.344" cy="272.251" r="3.17003" transform="rotate(30 161.344 272.251)" fill="#6E1B35"/>
<circle cx="147.61" cy="272.187" r="3.17003" transform="rotate(-30 147.61 272.187)" fill="#6E1B35"/>
<circle cx="133.877" cy="272.276" r="3.17003" transform="rotate(-60 133.877 272.276)" fill="#6E1B35"/>
<circle cx="175.076" cy="272.188" r="3.17003" transform="rotate(60 175.076 272.188)" fill="#6E1B35"/>
<circle cx="120.411" cy="272.239" r="3.17003" transform="rotate(-70 120.411 272.239)" fill="#6E1B35"/>
<circle cx="188.539" cy="272.237" r="3.17003" transform="rotate(70 188.539 272.237)" fill="#6E1B35"/>
<circle cx="107.394" cy="272.273" r="3.17003" transform="rotate(-75 107.394 272.273)" fill="#6E1B35"/>
<circle cx="201.559" cy="272.247" r="3.17003" transform="rotate(75 201.559 272.247)" fill="#6E1B35"/>
<circle cx="94.6798" cy="272.2" r="3.17003" transform="rotate(-78 94.6798 272.2)" fill="#6E1B35"/>
<circle cx="214.273" cy="272.188" r="3.17003" transform="rotate(78 214.273 272.188)" fill="#6E1B35"/>
<circle cx="82.1762" cy="272.197" r="3.17003" transform="rotate(-80 82.1762 272.197)" fill="#6E1B35"/>
<circle cx="226.776" cy="272.227" r="3.17003" transform="rotate(80 226.776 272.227)" fill="#6E1B35"/>
<circle cx="69.8258" cy="272.234" r="3.17003" transform="rotate(-81.4286 69.8258 272.234)" fill="#6E1B35"/>
<circle cx="239.127" cy="272.225" r="3.17003" transform="rotate(81.4286 239.127 272.225)" fill="#6E1B35"/>
<circle cx="57.5899" cy="272.229" r="3.17003" transform="rotate(-82.5 57.5899 272.229)" fill="#6E1B35"/>
<circle cx="251.365" cy="272.238" r="3.17003" transform="rotate(82.5 251.365 272.238)" fill="#6E1B35"/>
<circle cx="45.4424" cy="272.177" r="3.17003" transform="rotate(-83.3333 45.4424 272.177)" fill="#6E1B35"/>
<circle cx="263.508" cy="272.198" r="3.17003" transform="rotate(83.3333 263.508 272.198)" fill="#6E1B35"/>
<circle cx="161.344" cy="289.75" r="3.17003" transform="rotate(30 161.344 289.75)" fill="#6E1B35"/>
<circle cx="147.61" cy="289.687" r="3.17003" transform="rotate(-30 147.61 289.687)" fill="#6E1B35"/>
<circle cx="133.877" cy="289.775" r="3.17003" transform="rotate(-60 133.877 289.775)" fill="#6E1B35"/>
<circle cx="175.076" cy="289.687" r="3.17003" transform="rotate(60 175.076 289.687)" fill="#6E1B35"/>
<circle cx="120.411" cy="289.738" r="3.17003" transform="rotate(-70 120.411 289.738)" fill="#6E1B35"/>
<circle cx="188.539" cy="289.736" r="3.17003" transform="rotate(70 188.539 289.736)" fill="#6E1B35"/>
<circle cx="107.394" cy="289.772" r="3.17003" transform="rotate(-75 107.394 289.772)" fill="#6E1B35"/>
<circle cx="201.559" cy="289.747" r="3.17003" transform="rotate(75 201.559 289.747)" fill="#6E1B35"/>
<circle cx="94.6798" cy="289.699" r="3.17003" transform="rotate(-78 94.6798 289.699)" fill="#6E1B35"/>
<circle cx="214.273" cy="289.688" r="3.17003" transform="rotate(78 214.273 289.688)" fill="#6E1B35"/>
<circle cx="82.1762" cy="289.696" r="3.17003" transform="rotate(-80 82.1762 289.696)" fill="#6E1B35"/>
<circle cx="226.776" cy="289.726" r="3.17003" transform="rotate(80 226.776 289.726)" fill="#6E1B35"/>
<circle cx="69.8258" cy="289.733" r="3.17003" transform="rotate(-81.4286 69.8258 289.733)" fill="#6E1B35"/>
<circle cx="239.127" cy="289.724" r="3.17003" transform="rotate(81.4286 239.127 289.724)" fill="#6E1B35"/>
<circle cx="57.5899" cy="289.728" r="3.17003" transform="rotate(-82.5 57.5899 289.728)" fill="#6E1B35"/>
<circle cx="251.365" cy="289.737" r="3.17003" transform="rotate(82.5 251.365 289.737)" fill="#6E1B35"/>
<circle cx="45.4424" cy="289.676" r="3.17003" transform="rotate(-83.3333 45.4424 289.676)" fill="#6E1B35"/>
<circle cx="263.508" cy="289.697" r="3.17003" transform="rotate(83.3333 263.508 289.697)" fill="#6E1B35"/>
<circle cx="161.344" cy="307.25" r="3.17003" transform="rotate(30 161.344 307.25)" fill="#6E1B35"/>
<circle cx="147.61" cy="307.187" r="3.17003" transform="rotate(-30 147.61 307.187)" fill="#6E1B35"/>
<circle cx="133.877" cy="307.275" r="3.17003" transform="rotate(-60 133.877 307.275)" fill="#6E1B35"/>
<circle cx="175.076" cy="307.187" r="3.17003" transform="rotate(60 175.076 307.187)" fill="#6E1B35"/>
<circle cx="120.411" cy="307.238" r="3.17003" transform="rotate(-70 120.411 307.238)" fill="#6E1B35"/>
<circle cx="188.541" cy="307.236" r="3.17003" transform="rotate(70 188.541 307.236)" fill="#6E1B35"/>
<circle cx="107.394" cy="307.272" r="3.17003" transform="rotate(-75 107.394 307.272)" fill="#6E1B35"/>
<circle cx="201.559" cy="307.247" r="3.17003" transform="rotate(75 201.559 307.247)" fill="#6E1B35"/>
<circle cx="94.6798" cy="307.199" r="3.17003" transform="rotate(-78 94.6798 307.199)" fill="#6E1B35"/>
<circle cx="214.273" cy="307.188" r="3.17003" transform="rotate(78 214.273 307.188)" fill="#6E1B35"/>
<circle cx="82.1762" cy="307.196" r="3.17003" transform="rotate(-80 82.1762 307.196)" fill="#6E1B35"/>
<circle cx="226.776" cy="307.226" r="3.17003" transform="rotate(80 226.776 307.226)" fill="#6E1B35"/>
<circle cx="69.8258" cy="307.231" r="3.17003" transform="rotate(-81.4286 69.8258 307.231)" fill="#6E1B35"/>
<circle cx="239.129" cy="307.224" r="3.17003" transform="rotate(81.4286 239.129 307.224)" fill="#6E1B35"/>
<circle cx="57.5899" cy="307.228" r="3.17003" transform="rotate(-82.5 57.5899 307.228)" fill="#6E1B35"/>
<circle cx="251.365" cy="307.237" r="3.17003" transform="rotate(82.5 251.365 307.237)" fill="#6E1B35"/>
<circle cx="45.4424" cy="307.176" r="3.17003" transform="rotate(-83.3333 45.4424 307.176)" fill="#6E1B35"/>
<circle cx="263.508" cy="307.197" r="3.17003" transform="rotate(83.3333 263.508 307.197)" fill="#6E1B35"/>
<circle cx="161.344" cy="324.748" r="3.17003" transform="rotate(30 161.344 324.748)" fill="#6E1B35"/>
<circle cx="147.61" cy="324.685" r="3.17003" transform="rotate(-30 147.61 324.685)" fill="#6E1B35"/>
<circle cx="133.877" cy="324.773" r="3.17003" transform="rotate(-60 133.877 324.773)" fill="#6E1B35"/>
<circle cx="175.076" cy="324.685" r="3.17003" transform="rotate(60 175.076 324.685)" fill="#6E1B35"/>
<circle cx="120.411" cy="324.736" r="3.17003" transform="rotate(-70 120.411 324.736)" fill="#6E1B35"/>
<circle cx="188.539" cy="324.734" r="3.17003" transform="rotate(70 188.539 324.734)" fill="#6E1B35"/>
<circle cx="107.394" cy="324.77" r="3.17003" transform="rotate(-75 107.394 324.77)" fill="#6E1B35"/>
<circle cx="201.559" cy="324.745" r="3.17003" transform="rotate(75 201.559 324.745)" fill="#6E1B35"/>
<circle cx="94.6798" cy="324.697" r="3.17003" transform="rotate(-78 94.6798 324.697)" fill="#6E1B35"/>
<circle cx="214.273" cy="324.686" r="3.17003" transform="rotate(78 214.273 324.686)" fill="#6E1B35"/>
<circle cx="82.1762" cy="324.694" r="3.17003" transform="rotate(-80 82.1762 324.694)" fill="#6E1B35"/>
<circle cx="226.776" cy="324.724" r="3.17003" transform="rotate(80 226.776 324.724)" fill="#6E1B35"/>
<circle cx="69.8258" cy="324.731" r="3.17003" transform="rotate(-81.4286 69.8258 324.731)" fill="#6E1B35"/>
<circle cx="239.127" cy="324.722" r="3.17003" transform="rotate(81.4286 239.127 324.722)" fill="#6E1B35"/>
<circle cx="57.5899" cy="324.726" r="3.17003" transform="rotate(-82.5 57.5899 324.726)" fill="#6E1B35"/>
<circle cx="251.365" cy="324.735" r="3.17003" transform="rotate(82.5 251.365 324.735)" fill="#6E1B35"/>
<circle cx="45.4424" cy="324.674" r="3.17003" transform="rotate(-83.3333 45.4424 324.674)" fill="#6E1B35"/>
<circle cx="263.508" cy="324.695" r="3.17003" transform="rotate(83.3333 263.508 324.695)" fill="#6E1B35"/>
<circle cx="168.317" cy="123.518" r="3.17003" transform="rotate(30 168.317 123.518)" fill="#6E1B35"/>
<circle cx="154.582" cy="123.453" r="3.17003" transform="rotate(-30 154.582 123.453)" fill="#6E1B35"/>
<circle cx="140.85" cy="123.543" r="3.17003" transform="rotate(-60 140.85 123.543)" fill="#6E1B35"/>
<circle cx="182.049" cy="123.453" r="3.17003" transform="rotate(60 182.049 123.453)" fill="#6E1B35"/>
<circle cx="127.383" cy="123.506" r="3.17003" transform="rotate(-70 127.383 123.506)" fill="#6E1B35"/>
<circle cx="195.514" cy="123.503" r="3.17003" transform="rotate(70 195.514 123.503)" fill="#6E1B35"/>
<circle cx="114.367" cy="123.538" r="3.17003" transform="rotate(-75 114.367 123.538)" fill="#6E1B35"/>
<circle cx="208.532" cy="123.513" r="3.17003" transform="rotate(75 208.532 123.513)" fill="#6E1B35"/>
<circle cx="101.652" cy="123.467" r="3.17003" transform="rotate(-78 101.652 123.467)" fill="#6E1B35"/>
<circle cx="221.246" cy="123.455" r="3.17003" transform="rotate(78 221.246 123.455)" fill="#6E1B35"/>
<circle cx="89.1489" cy="123.464" r="3.17003" transform="rotate(-80 89.1489 123.464)" fill="#6E1B35"/>
<circle cx="233.749" cy="123.493" r="3.17003" transform="rotate(80 233.749 123.493)" fill="#6E1B35"/>
<circle cx="76.7985" cy="123.5" r="3.17003" transform="rotate(-81.4286 76.7985 123.5)" fill="#6E1B35"/>
<circle cx="246.1" cy="123.49" r="3.17003" transform="rotate(81.4286 246.1 123.49)" fill="#6E1B35"/>
<circle cx="64.5625" cy="123.495" r="3.17003" transform="rotate(-82.5 64.5625 123.495)" fill="#6E1B35"/>
<circle cx="258.337" cy="123.504" r="3.17003" transform="rotate(82.5 258.337 123.504)" fill="#6E1B35"/>
<circle cx="52.4151" cy="123.444" r="3.17003" transform="rotate(-83.3333 52.4151 123.444)" fill="#6E1B35"/>
<circle cx="270.481" cy="123.464" r="3.17003" transform="rotate(83.3333 270.481 123.464)" fill="#6E1B35"/>
<circle cx="168.317" cy="141.014" r="3.17003" transform="rotate(30 168.317 141.014)" fill="#6E1B35"/>
<circle cx="154.582" cy="140.949" r="3.17003" transform="rotate(-30 154.582 140.949)" fill="#6E1B35"/>
<circle cx="140.85" cy="141.038" r="3.17003" transform="rotate(-60 140.85 141.038)" fill="#6E1B35"/>
<circle cx="182.049" cy="140.949" r="3.17003" transform="rotate(60 182.049 140.949)" fill="#6E1B35"/>
<circle cx="127.383" cy="141.001" r="3.17003" transform="rotate(-70 127.383 141.001)" fill="#6E1B35"/>
<circle cx="195.514" cy="140.999" r="3.17003" transform="rotate(70 195.514 140.999)" fill="#6E1B35"/>
<circle cx="114.367" cy="141.035" r="3.17003" transform="rotate(-75 114.367 141.035)" fill="#6E1B35"/>
<circle cx="208.532" cy="141.009" r="3.17003" transform="rotate(75 208.532 141.009)" fill="#6E1B35"/>
<circle cx="101.652" cy="140.962" r="3.17003" transform="rotate(-78 101.652 140.962)" fill="#6E1B35"/>
<circle cx="221.246" cy="140.951" r="3.17003" transform="rotate(78 221.246 140.951)" fill="#6E1B35"/>
<circle cx="89.1489" cy="140.959" r="3.17003" transform="rotate(-80 89.1489 140.959)" fill="#6E1B35"/>
<circle cx="233.749" cy="140.989" r="3.17003" transform="rotate(80 233.749 140.989)" fill="#6E1B35"/>
<circle cx="76.7985" cy="140.996" r="3.17003" transform="rotate(-81.4286 76.7985 140.996)" fill="#6E1B35"/>
<circle cx="246.1" cy="140.986" r="3.17003" transform="rotate(81.4286 246.1 140.986)" fill="#6E1B35"/>
<circle cx="64.5625" cy="140.991" r="3.17003" transform="rotate(-82.5 64.5625 140.991)" fill="#6E1B35"/>
<circle cx="258.337" cy="141" r="3.17003" transform="rotate(82.5 258.337 141)" fill="#6E1B35"/>
<circle cx="52.4151" cy="140.939" r="3.17003" transform="rotate(-83.3333 52.4151 140.939)" fill="#6E1B35"/>
<circle cx="270.481" cy="140.96" r="3.17003" transform="rotate(83.3333 270.481 140.96)" fill="#6E1B35"/>
<circle cx="168.317" cy="158.512" r="3.17003" transform="rotate(30 168.317 158.512)" fill="#6E1B35"/>
<circle cx="154.582" cy="158.448" r="3.17003" transform="rotate(-30 154.582 158.448)" fill="#6E1B35"/>
<circle cx="140.85" cy="158.537" r="3.17003" transform="rotate(-60 140.85 158.537)" fill="#6E1B35"/>
<circle cx="182.049" cy="158.449" r="3.17003" transform="rotate(60 182.049 158.449)" fill="#6E1B35"/>
<circle cx="127.383" cy="158.5" r="3.17003" transform="rotate(-70 127.383 158.5)" fill="#6E1B35"/>
<circle cx="195.514" cy="158.498" r="3.17003" transform="rotate(70 195.514 158.498)" fill="#6E1B35"/>
<circle cx="114.367" cy="158.534" r="3.17003" transform="rotate(-75 114.367 158.534)" fill="#6E1B35"/>
<circle cx="208.532" cy="158.508" r="3.17003" transform="rotate(75 208.532 158.508)" fill="#6E1B35"/>
<circle cx="101.652" cy="158.461" r="3.17003" transform="rotate(-78 101.652 158.461)" fill="#6E1B35"/>
<circle cx="221.246" cy="158.449" r="3.17003" transform="rotate(78 221.246 158.449)" fill="#6E1B35"/>
<circle cx="89.1489" cy="158.458" r="3.17003" transform="rotate(-80 89.1489 158.458)" fill="#6E1B35"/>
<circle cx="233.749" cy="158.488" r="3.17003" transform="rotate(80 233.749 158.488)" fill="#6E1B35"/>
<circle cx="76.7985" cy="158.495" r="3.17003" transform="rotate(-81.4286 76.7985 158.495)" fill="#6E1B35"/>
<circle cx="246.1" cy="158.486" r="3.17003" transform="rotate(81.4286 246.1 158.486)" fill="#6E1B35"/>
<circle cx="64.5625" cy="158.49" r="3.17003" transform="rotate(-82.5 64.5625 158.49)" fill="#6E1B35"/>
<circle cx="258.337" cy="158.499" r="3.17003" transform="rotate(82.5 258.337 158.499)" fill="#6E1B35"/>
<circle cx="52.4151" cy="158.438" r="3.17003" transform="rotate(-83.3333 52.4151 158.438)" fill="#6E1B35"/>
<circle cx="270.481" cy="158.459" r="3.17003" transform="rotate(83.3333 270.481 158.459)" fill="#6E1B35"/>
<circle cx="168.317" cy="176.01" r="3.17003" transform="rotate(30 168.317 176.01)" fill="#6E1B35"/>
<circle cx="154.582" cy="175.946" r="3.17003" transform="rotate(-30 154.582 175.946)" fill="#6E1B35"/>
<circle cx="140.85" cy="176.035" r="3.17003" transform="rotate(-60 140.85 176.035)" fill="#6E1B35"/>
<circle cx="182.049" cy="175.947" r="3.17003" transform="rotate(60 182.049 175.947)" fill="#6E1B35"/>
<circle cx="127.383" cy="175.998" r="3.17003" transform="rotate(-70 127.383 175.998)" fill="#6E1B35"/>
<circle cx="195.514" cy="175.998" r="3.17003" transform="rotate(70 195.514 175.998)" fill="#6E1B35"/>
<circle cx="114.367" cy="176.032" r="3.17003" transform="rotate(-75 114.367 176.032)" fill="#6E1B35"/>
<circle cx="208.532" cy="176.006" r="3.17003" transform="rotate(75 208.532 176.006)" fill="#6E1B35"/>
<circle cx="101.652" cy="175.959" r="3.17003" transform="rotate(-78 101.652 175.959)" fill="#6E1B35"/>
<circle cx="221.246" cy="175.947" r="3.17003" transform="rotate(78 221.246 175.947)" fill="#6E1B35"/>
<circle cx="89.1489" cy="175.956" r="3.17003" transform="rotate(-80 89.1489 175.956)" fill="#6E1B35"/>
<circle cx="233.749" cy="175.986" r="3.17003" transform="rotate(80 233.749 175.986)" fill="#6E1B35"/>
<circle cx="76.7985" cy="175.993" r="3.17003" transform="rotate(-81.4286 76.7985 175.993)" fill="#6E1B35"/>
<circle cx="246.1" cy="175.984" r="3.17003" transform="rotate(81.4286 246.1 175.984)" fill="#6E1B35"/>
<circle cx="64.5625" cy="175.988" r="3.17003" transform="rotate(-82.5 64.5625 175.988)" fill="#6E1B35"/>
<circle cx="258.337" cy="175.997" r="3.17003" transform="rotate(82.5 258.337 175.997)" fill="#6E1B35"/>
<circle cx="52.4151" cy="175.936" r="3.17003" transform="rotate(-83.3333 52.4151 175.936)" fill="#6E1B35"/>
<circle cx="270.481" cy="175.957" r="3.17003" transform="rotate(83.3333 270.481 175.957)" fill="#6E1B35"/>
<circle cx="168.317" cy="193.508" r="3.17003" transform="rotate(30 168.317 193.508)" fill="#6E1B35"/>
<circle cx="154.582" cy="193.444" r="3.17003" transform="rotate(-30 154.582 193.444)" fill="#6E1B35"/>
<circle cx="140.85" cy="193.533" r="3.17003" transform="rotate(-60 140.85 193.533)" fill="#6E1B35"/>
<circle cx="182.049" cy="193.445" r="3.17003" transform="rotate(60 182.049 193.445)" fill="#6E1B35"/>
<circle cx="127.383" cy="193.496" r="3.17003" transform="rotate(-70 127.383 193.496)" fill="#6E1B35"/>
<circle cx="195.514" cy="193.494" r="3.17003" transform="rotate(70 195.514 193.494)" fill="#6E1B35"/>
<circle cx="114.367" cy="193.53" r="3.17003" transform="rotate(-75 114.367 193.53)" fill="#6E1B35"/>
<circle cx="208.532" cy="193.504" r="3.17003" transform="rotate(75 208.532 193.504)" fill="#6E1B35"/>
<circle cx="101.652" cy="193.457" r="3.17003" transform="rotate(-78 101.652 193.457)" fill="#6E1B35"/>
<circle cx="221.246" cy="193.445" r="3.17003" transform="rotate(78 221.246 193.445)" fill="#6E1B35"/>
<circle cx="89.149" cy="193.454" r="3.17003" transform="rotate(-80 89.149 193.454)" fill="#6E1B35"/>
<circle cx="233.749" cy="193.484" r="3.17003" transform="rotate(80 233.749 193.484)" fill="#6E1B35"/>
<circle cx="76.7986" cy="193.491" r="3.17003" transform="rotate(-81.4286 76.7986 193.491)" fill="#6E1B35"/>
<circle cx="246.1" cy="193.482" r="3.17003" transform="rotate(81.4286 246.1 193.482)" fill="#6E1B35"/>
<circle cx="64.5626" cy="193.486" r="3.17003" transform="rotate(-82.5 64.5626 193.486)" fill="#6E1B35"/>
<circle cx="258.337" cy="193.495" r="3.17003" transform="rotate(82.5 258.337 193.495)" fill="#6E1B35"/>
<circle cx="52.4151" cy="193.434" r="3.17003" transform="rotate(-83.3333 52.4151 193.434)" fill="#6E1B35"/>
<circle cx="270.481" cy="193.455" r="3.17003" transform="rotate(83.3333 270.481 193.455)" fill="#6E1B35"/>
<circle cx="168.317" cy="211.009" r="3.17003" transform="rotate(30 168.317 211.009)" fill="#6E1B35"/>
<circle cx="154.582" cy="210.945" r="3.17003" transform="rotate(-30 154.582 210.945)" fill="#6E1B35"/>
<circle cx="140.85" cy="211.034" r="3.17003" transform="rotate(-60 140.85 211.034)" fill="#6E1B35"/>
<circle cx="182.049" cy="210.946" r="3.17003" transform="rotate(60 182.049 210.946)" fill="#6E1B35"/>
<circle cx="127.383" cy="210.997" r="3.17003" transform="rotate(-70 127.383 210.997)" fill="#6E1B35"/>
<circle cx="195.514" cy="210.995" r="3.17003" transform="rotate(70 195.514 210.995)" fill="#6E1B35"/>
<circle cx="114.367" cy="211.031" r="3.17003" transform="rotate(-75 114.367 211.031)" fill="#6E1B35"/>
<circle cx="208.532" cy="211.005" r="3.17003" transform="rotate(75 208.532 211.005)" fill="#6E1B35"/>
<circle cx="101.652" cy="210.958" r="3.17003" transform="rotate(-78 101.652 210.958)" fill="#6E1B35"/>
<circle cx="221.246" cy="210.946" r="3.17003" transform="rotate(78 221.246 210.946)" fill="#6E1B35"/>
<circle cx="89.1489" cy="210.955" r="3.17003" transform="rotate(-80 89.1489 210.955)" fill="#6E1B35"/>
<circle cx="233.749" cy="210.985" r="3.17003" transform="rotate(80 233.749 210.985)" fill="#6E1B35"/>
<circle cx="76.7985" cy="210.992" r="3.17003" transform="rotate(-81.4286 76.7985 210.992)" fill="#6E1B35"/>
<circle cx="246.1" cy="210.983" r="3.17003" transform="rotate(81.4286 246.1 210.983)" fill="#6E1B35"/>
<circle cx="64.5625" cy="210.987" r="3.17003" transform="rotate(-82.5 64.5625 210.987)" fill="#6E1B35"/>
<circle cx="258.337" cy="210.996" r="3.17003" transform="rotate(82.5 258.337 210.996)" fill="#6E1B35"/>
<circle cx="52.4151" cy="210.935" r="3.17003" transform="rotate(-83.3333 52.4151 210.935)" fill="#6E1B35"/>
<circle cx="270.481" cy="210.956" r="3.17003" transform="rotate(83.3333 270.481 210.956)" fill="#6E1B35"/>
<circle cx="168.317" cy="228.508" r="3.17003" transform="rotate(30 168.317 228.508)" fill="#6E1B35"/>
<circle cx="154.582" cy="228.444" r="3.17003" transform="rotate(-30 154.582 228.444)" fill="#6E1B35"/>
<circle cx="140.85" cy="228.533" r="3.17003" transform="rotate(-60 140.85 228.533)" fill="#6E1B35"/>
<circle cx="182.049" cy="228.445" r="3.17003" transform="rotate(60 182.049 228.445)" fill="#6E1B35"/>
<circle cx="127.383" cy="228.496" r="3.17003" transform="rotate(-70 127.383 228.496)" fill="#6E1B35"/>
<circle cx="195.514" cy="228.494" r="3.17003" transform="rotate(70 195.514 228.494)" fill="#6E1B35"/>
<circle cx="114.367" cy="228.53" r="3.17003" transform="rotate(-75 114.367 228.53)" fill="#6E1B35"/>
<circle cx="208.532" cy="228.504" r="3.17003" transform="rotate(75 208.532 228.504)" fill="#6E1B35"/>
<circle cx="101.652" cy="228.457" r="3.17003" transform="rotate(-78 101.652 228.457)" fill="#6E1B35"/>
<circle cx="221.246" cy="228.445" r="3.17003" transform="rotate(78 221.246 228.445)" fill="#6E1B35"/>
<circle cx="89.1489" cy="228.454" r="3.17003" transform="rotate(-80 89.1489 228.454)" fill="#6E1B35"/>
<circle cx="233.749" cy="228.484" r="3.17003" transform="rotate(80 233.749 228.484)" fill="#6E1B35"/>
<circle cx="76.7985" cy="228.491" r="3.17003" transform="rotate(-81.4286 76.7985 228.491)" fill="#6E1B35"/>
<circle cx="246.1" cy="228.482" r="3.17003" transform="rotate(81.4286 246.1 228.482)" fill="#6E1B35"/>
<circle cx="64.5625" cy="228.486" r="3.17003" transform="rotate(-82.5 64.5625 228.486)" fill="#6E1B35"/>
<circle cx="258.337" cy="228.495" r="3.17003" transform="rotate(82.5 258.337 228.495)" fill="#6E1B35"/>
<circle cx="52.4151" cy="228.434" r="3.17003" transform="rotate(-83.3333 52.4151 228.434)" fill="#6E1B35"/>
<circle cx="270.481" cy="228.455" r="3.17003" transform="rotate(83.3333 270.481 228.455)" fill="#6E1B35"/>
<circle cx="168.317" cy="246.004" r="3.17003" transform="rotate(30 168.317 246.004)" fill="#6E1B35"/>
<circle cx="154.582" cy="245.94" r="3.17003" transform="rotate(-30 154.582 245.94)" fill="#6E1B35"/>
<circle cx="140.85" cy="246.029" r="3.17003" transform="rotate(-60 140.85 246.029)" fill="#6E1B35"/>
<circle cx="182.049" cy="245.94" r="3.17003" transform="rotate(60 182.049 245.94)" fill="#6E1B35"/>
<circle cx="127.383" cy="245.992" r="3.17003" transform="rotate(-70 127.383 245.992)" fill="#6E1B35"/>
<circle cx="195.514" cy="245.99" r="3.17003" transform="rotate(70 195.514 245.99)" fill="#6E1B35"/>
<circle cx="114.367" cy="246.026" r="3.17003" transform="rotate(-75 114.367 246.026)" fill="#6E1B35"/>
<circle cx="208.532" cy="246" r="3.17003" transform="rotate(75 208.532 246)" fill="#6E1B35"/>
<circle cx="101.652" cy="245.953" r="3.17003" transform="rotate(-78 101.652 245.953)" fill="#6E1B35"/>
<circle cx="221.246" cy="245.941" r="3.17003" transform="rotate(78 221.246 245.941)" fill="#6E1B35"/>
<circle cx="89.149" cy="245.95" r="3.17003" transform="rotate(-80 89.149 245.95)" fill="#6E1B35"/>
<circle cx="233.749" cy="245.98" r="3.17003" transform="rotate(80 233.749 245.98)" fill="#6E1B35"/>
<circle cx="76.7986" cy="245.987" r="3.17003" transform="rotate(-81.4286 76.7986 245.987)" fill="#6E1B35"/>
<circle cx="246.1" cy="245.978" r="3.17003" transform="rotate(81.4286 246.1 245.978)" fill="#6E1B35"/>
<circle cx="64.5626" cy="245.982" r="3.17003" transform="rotate(-82.5 64.5626 245.982)" fill="#6E1B35"/>
<circle cx="258.337" cy="245.991" r="3.17003" transform="rotate(82.5 258.337 245.991)" fill="#6E1B35"/>
<circle cx="52.4151" cy="245.93" r="3.17003" transform="rotate(-83.3333 52.4151 245.93)" fill="#6E1B35"/>
<circle cx="270.481" cy="245.951" r="3.17003" transform="rotate(83.3333 270.481 245.951)" fill="#6E1B35"/>
<circle cx="168.317" cy="263.503" r="3.17003" transform="rotate(30 168.317 263.503)" fill="#6E1B35"/>
<circle cx="154.582" cy="263.44" r="3.17003" transform="rotate(-30 154.582 263.44)" fill="#6E1B35"/>
<circle cx="140.85" cy="263.528" r="3.17003" transform="rotate(-60 140.85 263.528)" fill="#6E1B35"/>
<circle cx="182.049" cy="263.44" r="3.17003" transform="rotate(60 182.049 263.44)" fill="#6E1B35"/>
<circle cx="127.383" cy="263.491" r="3.17003" transform="rotate(-70 127.383 263.491)" fill="#6E1B35"/>
<circle cx="195.514" cy="263.489" r="3.17003" transform="rotate(70 195.514 263.489)" fill="#6E1B35"/>
<circle cx="114.367" cy="263.525" r="3.17003" transform="rotate(-75 114.367 263.525)" fill="#6E1B35"/>
<circle cx="208.532" cy="263.5" r="3.17003" transform="rotate(75 208.532 263.5)" fill="#6E1B35"/>
<circle cx="101.652" cy="263.452" r="3.17003" transform="rotate(-78 101.652 263.452)" fill="#6E1B35"/>
<circle cx="221.246" cy="263.441" r="3.17003" transform="rotate(78 221.246 263.441)" fill="#6E1B35"/>
<circle cx="89.1489" cy="263.449" r="3.17003" transform="rotate(-80 89.1489 263.449)" fill="#6E1B35"/>
<circle cx="233.749" cy="263.479" r="3.17003" transform="rotate(80 233.749 263.479)" fill="#6E1B35"/>
<circle cx="76.7985" cy="263.486" r="3.17003" transform="rotate(-81.4286 76.7985 263.486)" fill="#6E1B35"/>
<circle cx="246.1" cy="263.479" r="3.17003" transform="rotate(81.4286 246.1 263.479)" fill="#6E1B35"/>
<circle cx="64.5625" cy="263.481" r="3.17003" transform="rotate(-82.5 64.5625 263.481)" fill="#6E1B35"/>
<circle cx="258.337" cy="263.49" r="3.17003" transform="rotate(82.5 258.337 263.49)" fill="#6E1B35"/>
<circle cx="52.4151" cy="263.429" r="3.17003" transform="rotate(-83.3333 52.4151 263.429)" fill="#6E1B35"/>
<circle cx="270.481" cy="263.45" r="3.17003" transform="rotate(83.3333 270.481 263.45)" fill="#6E1B35"/>
<circle cx="168.317" cy="281" r="3.17003" transform="rotate(30 168.317 281)" fill="#6E1B35"/>
<circle cx="154.582" cy="280.937" r="3.17003" transform="rotate(-30 154.582 280.937)" fill="#6E1B35"/>
<circle cx="140.85" cy="281.025" r="3.17003" transform="rotate(-60 140.85 281.025)" fill="#6E1B35"/>
<circle cx="182.049" cy="280.937" r="3.17003" transform="rotate(60 182.049 280.937)" fill="#6E1B35"/>
<circle cx="127.383" cy="280.988" r="3.17003" transform="rotate(-70 127.383 280.988)" fill="#6E1B35"/>
<circle cx="195.514" cy="280.986" r="3.17003" transform="rotate(70 195.514 280.986)" fill="#6E1B35"/>
<circle cx="114.367" cy="281.022" r="3.17003" transform="rotate(-75 114.367 281.022)" fill="#6E1B35"/>
<circle cx="208.532" cy="280.997" r="3.17003" transform="rotate(75 208.532 280.997)" fill="#6E1B35"/>
<circle cx="101.652" cy="280.949" r="3.17003" transform="rotate(-78 101.652 280.949)" fill="#6E1B35"/>
<circle cx="221.246" cy="280.938" r="3.17003" transform="rotate(78 221.246 280.938)" fill="#6E1B35"/>
<circle cx="89.149" cy="280.946" r="3.17003" transform="rotate(-80 89.149 280.946)" fill="#6E1B35"/>
<circle cx="233.749" cy="280.976" r="3.17003" transform="rotate(80 233.749 280.976)" fill="#6E1B35"/>
<circle cx="76.7986" cy="280.984" r="3.17003" transform="rotate(-81.4286 76.7986 280.984)" fill="#6E1B35"/>
<circle cx="246.1" cy="280.974" r="3.17003" transform="rotate(81.4286 246.1 280.974)" fill="#6E1B35"/>
<circle cx="64.5626" cy="280.978" r="3.17003" transform="rotate(-82.5 64.5626 280.978)" fill="#6E1B35"/>
<circle cx="258.337" cy="280.988" r="3.17003" transform="rotate(82.5 258.337 280.988)" fill="#6E1B35"/>
<circle cx="52.4151" cy="280.927" r="3.17003" transform="rotate(-83.3333 52.4151 280.927)" fill="#6E1B35"/>
<circle cx="270.481" cy="280.947" r="3.17003" transform="rotate(83.3333 270.481 280.947)" fill="#6E1B35"/>
<circle cx="168.317" cy="298.499" r="3.17003" transform="rotate(30 168.317 298.499)" fill="#6E1B35"/>
<circle cx="154.582" cy="298.436" r="3.17003" transform="rotate(-30 154.582 298.436)" fill="#6E1B35"/>
<circle cx="140.85" cy="298.524" r="3.17003" transform="rotate(-60 140.85 298.524)" fill="#6E1B35"/>
<circle cx="182.049" cy="298.436" r="3.17003" transform="rotate(60 182.049 298.436)" fill="#6E1B35"/>
<circle cx="127.383" cy="298.487" r="3.17003" transform="rotate(-70 127.383 298.487)" fill="#6E1B35"/>
<circle cx="195.514" cy="298.485" r="3.17003" transform="rotate(70 195.514 298.485)" fill="#6E1B35"/>
<circle cx="114.367" cy="298.521" r="3.17003" transform="rotate(-75 114.367 298.521)" fill="#6E1B35"/>
<circle cx="208.532" cy="298.496" r="3.17003" transform="rotate(75 208.532 298.496)" fill="#6E1B35"/>
<circle cx="101.652" cy="298.448" r="3.17003" transform="rotate(-78 101.652 298.448)" fill="#6E1B35"/>
<circle cx="221.246" cy="298.437" r="3.17003" transform="rotate(78 221.246 298.437)" fill="#6E1B35"/>
<circle cx="89.149" cy="298.445" r="3.17003" transform="rotate(-80 89.149 298.445)" fill="#6E1B35"/>
<circle cx="233.749" cy="298.475" r="3.17003" transform="rotate(80 233.749 298.475)" fill="#6E1B35"/>
<circle cx="76.7986" cy="298.482" r="3.17003" transform="rotate(-81.4286 76.7986 298.482)" fill="#6E1B35"/>
<circle cx="246.1" cy="298.473" r="3.17003" transform="rotate(81.4286 246.1 298.473)" fill="#6E1B35"/>
<circle cx="64.5626" cy="298.477" r="3.17003" transform="rotate(-82.5 64.5626 298.477)" fill="#6E1B35"/>
<circle cx="258.337" cy="298.486" r="3.17003" transform="rotate(82.5 258.337 298.486)" fill="#6E1B35"/>
<circle cx="52.4151" cy="298.425" r="3.17003" transform="rotate(-83.3333 52.4151 298.425)" fill="#6E1B35"/>
<circle cx="270.481" cy="298.446" r="3.17003" transform="rotate(83.3333 270.481 298.446)" fill="#6E1B35"/>
<circle cx="168.317" cy="316" r="3.17003" transform="rotate(30 168.317 316)" fill="#6E1B35"/>
<circle cx="154.582" cy="315.936" r="3.17003" transform="rotate(-30 154.582 315.936)" fill="#6E1B35"/>
<circle cx="140.85" cy="316.025" r="3.17003" transform="rotate(-60 140.85 316.025)" fill="#6E1B35"/>
<circle cx="182.049" cy="315.937" r="3.17003" transform="rotate(60 182.049 315.937)" fill="#6E1B35"/>
<circle cx="127.383" cy="315.988" r="3.17003" transform="rotate(-70 127.383 315.988)" fill="#6E1B35"/>
<circle cx="195.514" cy="315.986" r="3.17003" transform="rotate(70 195.514 315.986)" fill="#6E1B35"/>
<circle cx="114.367" cy="316.022" r="3.17003" transform="rotate(-75 114.367 316.022)" fill="#6E1B35"/>
<circle cx="208.532" cy="315.996" r="3.17003" transform="rotate(75 208.532 315.996)" fill="#6E1B35"/>
<circle cx="101.652" cy="315.949" r="3.17003" transform="rotate(-78 101.652 315.949)" fill="#6E1B35"/>
<circle cx="221.246" cy="315.937" r="3.17003" transform="rotate(78 221.246 315.937)" fill="#6E1B35"/>
<circle cx="89.149" cy="315.946" r="3.17003" transform="rotate(-80 89.149 315.946)" fill="#6E1B35"/>
<circle cx="233.749" cy="315.976" r="3.17003" transform="rotate(80 233.749 315.976)" fill="#6E1B35"/>
<circle cx="76.7986" cy="315.983" r="3.17003" transform="rotate(-81.4286 76.7986 315.983)" fill="#6E1B35"/>
<circle cx="246.1" cy="315.976" r="3.17003" transform="rotate(81.4286 246.1 315.976)" fill="#6E1B35"/>
<circle cx="64.5626" cy="315.978" r="3.17003" transform="rotate(-82.5 64.5626 315.978)" fill="#6E1B35"/>
<circle cx="258.337" cy="315.987" r="3.17003" transform="rotate(82.5 258.337 315.987)" fill="#6E1B35"/>
<circle cx="52.4151" cy="315.926" r="3.17003" transform="rotate(-83.3333 52.4151 315.926)" fill="#6E1B35"/>
<circle cx="270.481" cy="315.947" r="3.17003" transform="rotate(83.3333 270.481 315.947)" fill="#6E1B35"/>
<circle cx="168.317" cy="333.497" r="3.17003" transform="rotate(30 168.317 333.497)" fill="#6E1B35"/>
<circle cx="154.582" cy="333.434" r="3.17003" transform="rotate(-30 154.582 333.434)" fill="#6E1B35"/>
<circle cx="140.85" cy="333.522" r="3.17003" transform="rotate(-60 140.85 333.522)" fill="#6E1B35"/>
<circle cx="182.049" cy="333.434" r="3.17003" transform="rotate(60 182.049 333.434)" fill="#6E1B35"/>
<circle cx="127.383" cy="333.485" r="3.17003" transform="rotate(-70 127.383 333.485)" fill="#6E1B35"/>
<circle cx="195.514" cy="333.483" r="3.17003" transform="rotate(70 195.514 333.483)" fill="#6E1B35"/>
<circle cx="114.367" cy="333.519" r="3.17003" transform="rotate(-75 114.367 333.519)" fill="#6E1B35"/>
<circle cx="208.532" cy="333.494" r="3.17003" transform="rotate(75 208.532 333.494)" fill="#6E1B35"/>
<circle cx="101.652" cy="333.446" r="3.17003" transform="rotate(-78 101.652 333.446)" fill="#6E1B35"/>
<circle cx="221.246" cy="333.435" r="3.17003" transform="rotate(78 221.246 333.435)" fill="#6E1B35"/>
<circle cx="89.1489" cy="333.443" r="3.17003" transform="rotate(-80 89.1489 333.443)" fill="#6E1B35"/>
<circle cx="233.749" cy="333.473" r="3.17003" transform="rotate(80 233.749 333.473)" fill="#6E1B35"/>
<circle cx="76.7985" cy="333.48" r="3.17003" transform="rotate(-81.4286 76.7985 333.48)" fill="#6E1B35"/>
<circle cx="246.1" cy="333.471" r="3.17003" transform="rotate(81.4286 246.1 333.471)" fill="#6E1B35"/>
<circle cx="64.5625" cy="333.475" r="3.17003" transform="rotate(-82.5 64.5625 333.475)" fill="#6E1B35"/>
<circle cx="258.337" cy="333.484" r="3.17003" transform="rotate(82.5 258.337 333.484)" fill="#6E1B35"/>
<circle cx="52.4151" cy="333.424" r="3.17003" transform="rotate(-83.3333 52.4151 333.424)" fill="#6E1B35"/>
<circle cx="270.481" cy="333.444" r="3.17003" transform="rotate(83.3333 270.481 333.444)" fill="#6E1B35"/>
</g>
<g opacity="0.6">
<path d="M150 353V412C150 434.5 138.5 445.999 114.5 446H21.5" stroke="#6E1B35" stroke-width="2" stroke-dasharray="4 4"/>
<circle cx="6" cy="446.5" r="6" transform="rotate(180 6 446.5)" fill="#6E1B35"/>
</g>
<g opacity="0.6">
<path d="M150 99.5V40.5C150 18 138.5 6.50088 114.5 6.5H21.5" stroke="#6E1B35" stroke-width="2" stroke-dasharray="4 4"/>
<circle cx="6" cy="6" r="6" transform="matrix(-1 0 0 1 12 0)" fill="#6E1B35"/>
</g>
<path d="M172 99.5V40.5C172 18 183.5 6.50088 207.5 6.5H300.5" stroke="#6E1B35" stroke-width="2" stroke-dasharray="4 4"/>
<circle cx="316" cy="6" r="6" fill="#6E1B35"/>
<g opacity="0.6">
<path d="M178 353V412C178 434.5 189.5 445.999 213.5 446H306.5" stroke="#6E1B35" stroke-width="2" stroke-dasharray="4 4"/>
<circle cx="6" cy="6" r="6" transform="matrix(1 0 0 -1 316 452.5)" fill="#6E1B35"/>
</g>
</svg>
