<svg width="281" height="213" viewBox="0 0 281 213" fill="none" xmlns="http://www.w3.org/2000/svg">
<mask id="mask0_172_7110" style="mask-type:alpha" maskUnits="userSpaceOnUse" x="84" y="40" width="112" height="112">
<circle cx="139.82" cy="95.75" r="55.75" transform="rotate(90 139.82 95.75)" fill="#D9D9D9"/>
</mask>
<g mask="url(#mask0_172_7110)">
<circle cx="195.69" cy="97.9504" r="1.60663" transform="rotate(120 195.69 97.9504)" fill="#6E1B35"/>
<circle cx="195.722" cy="90.9896" r="1.60663" transform="rotate(60 195.722 90.9896)" fill="#6E1B35"/>
<circle cx="195.678" cy="84.0297" r="1.60663" transform="rotate(30 195.678 84.0297)" fill="#6E1B35"/>
<circle cx="195.723" cy="104.91" r="1.60663" transform="rotate(150 195.723 104.91)" fill="#6E1B35"/>
<circle cx="195.697" cy="77.2047" r="1.60663" transform="rotate(20 195.697 77.2047)" fill="#6E1B35"/>
<circle cx="195.699" cy="111.735" r="1.60663" transform="rotate(160 195.699 111.735)" fill="#6E1B35"/>
<circle cx="195.681" cy="70.6083" r="1.60663" transform="rotate(15 195.681 70.6083)" fill="#6E1B35"/>
<circle cx="195.692" cy="118.333" r="1.60663" transform="rotate(165 195.692 118.333)" fill="#6E1B35"/>
<circle cx="195.716" cy="64.1643" r="1.60663" transform="rotate(12 195.716 64.1643)" fill="#6E1B35"/>
<circle cx="195.721" cy="124.776" r="1.60663" transform="rotate(168 195.721 124.776)" fill="#6E1B35"/>
<circle cx="195.717" cy="57.827" r="1.60663" transform="rotate(10 195.717 57.827)" fill="#6E1B35"/>
<circle cx="195.703" cy="131.113" r="1.60663" transform="rotate(170 195.703 131.113)" fill="#6E1B35"/>
<circle cx="195.699" cy="51.5674" r="1.60663" transform="rotate(8.57143 195.699 51.5674)" fill="#6E1B35"/>
<circle cx="195.705" cy="137.373" r="1.60663" transform="rotate(171.429 195.705 137.373)" fill="#6E1B35"/>
<circle cx="195.702" cy="45.3661" r="1.60663" transform="rotate(7.5 195.702 45.3661)" fill="#6E1B35"/>
<circle cx="195.698" cy="143.575" r="1.60663" transform="rotate(172.5 195.698 143.575)" fill="#6E1B35"/>
<circle cx="195.728" cy="39.21" r="1.60663" transform="rotate(6.66667 195.728 39.21)" fill="#6E1B35"/>
<circle cx="195.718" cy="149.729" r="1.60663" transform="rotate(173.333 195.718 149.729)" fill="#6E1B35"/>
<circle cx="186.821" cy="97.9504" r="1.60663" transform="rotate(120 186.821 97.9504)" fill="#6E1B35"/>
<circle cx="186.853" cy="90.9896" r="1.60663" transform="rotate(60 186.853 90.9896)" fill="#6E1B35"/>
<circle cx="186.809" cy="84.0297" r="1.60663" transform="rotate(30 186.809 84.0297)" fill="#6E1B35"/>
<circle cx="186.854" cy="104.91" r="1.60663" transform="rotate(150 186.854 104.91)" fill="#6E1B35"/>
<circle cx="186.827" cy="77.2047" r="1.60663" transform="rotate(20 186.827 77.2047)" fill="#6E1B35"/>
<circle cx="186.829" cy="111.733" r="1.60663" transform="rotate(160 186.829 111.733)" fill="#6E1B35"/>
<circle cx="186.812" cy="70.6083" r="1.60663" transform="rotate(15 186.812 70.6083)" fill="#6E1B35"/>
<circle cx="186.823" cy="118.333" r="1.60663" transform="rotate(165 186.823 118.333)" fill="#6E1B35"/>
<circle cx="186.847" cy="64.1643" r="1.60663" transform="rotate(12 186.847 64.1643)" fill="#6E1B35"/>
<circle cx="186.854" cy="124.776" r="1.60663" transform="rotate(168 186.854 124.776)" fill="#6E1B35"/>
<circle cx="186.848" cy="57.827" r="1.60663" transform="rotate(10 186.848 57.827)" fill="#6E1B35"/>
<circle cx="186.834" cy="131.113" r="1.60663" transform="rotate(170 186.834 131.113)" fill="#6E1B35"/>
<circle cx="186.83" cy="51.5674" r="1.60663" transform="rotate(8.57143 186.83 51.5674)" fill="#6E1B35"/>
<circle cx="186.836" cy="137.372" r="1.60663" transform="rotate(171.429 186.836 137.372)" fill="#6E1B35"/>
<circle cx="186.832" cy="45.3661" r="1.60663" transform="rotate(7.5 186.832 45.3661)" fill="#6E1B35"/>
<circle cx="186.828" cy="143.575" r="1.60663" transform="rotate(172.5 186.828 143.575)" fill="#6E1B35"/>
<circle cx="186.858" cy="39.21" r="1.60663" transform="rotate(6.66667 186.858 39.21)" fill="#6E1B35"/>
<circle cx="186.849" cy="149.729" r="1.60663" transform="rotate(173.333 186.849 149.729)" fill="#6E1B35"/>
<circle cx="177.954" cy="97.9504" r="1.60663" transform="rotate(120 177.954 97.9504)" fill="#6E1B35"/>
<circle cx="177.986" cy="90.9896" r="1.60663" transform="rotate(60 177.986 90.9896)" fill="#6E1B35"/>
<circle cx="177.942" cy="84.0297" r="1.60663" transform="rotate(30 177.942 84.0297)" fill="#6E1B35"/>
<circle cx="177.987" cy="104.91" r="1.60663" transform="rotate(150 177.987 104.91)" fill="#6E1B35"/>
<circle cx="177.96" cy="77.2047" r="1.60663" transform="rotate(20 177.96 77.2047)" fill="#6E1B35"/>
<circle cx="177.962" cy="111.734" r="1.60663" transform="rotate(160 177.962 111.734)" fill="#6E1B35"/>
<circle cx="177.943" cy="70.6083" r="1.60663" transform="rotate(15 177.943 70.6083)" fill="#6E1B35"/>
<circle cx="177.956" cy="118.333" r="1.60663" transform="rotate(165 177.956 118.333)" fill="#6E1B35"/>
<circle cx="177.98" cy="64.1643" r="1.60663" transform="rotate(12 177.98 64.1643)" fill="#6E1B35"/>
<circle cx="177.985" cy="124.776" r="1.60663" transform="rotate(168 177.985 124.776)" fill="#6E1B35"/>
<circle cx="177.981" cy="57.827" r="1.60663" transform="rotate(10 177.981 57.827)" fill="#6E1B35"/>
<circle cx="177.967" cy="131.113" r="1.60663" transform="rotate(170 177.967 131.113)" fill="#6E1B35"/>
<circle cx="177.963" cy="51.5674" r="1.60663" transform="rotate(8.57143 177.963 51.5674)" fill="#6E1B35"/>
<circle cx="177.967" cy="137.372" r="1.60663" transform="rotate(171.429 177.967 137.372)" fill="#6E1B35"/>
<circle cx="177.965" cy="45.3661" r="1.60663" transform="rotate(7.5 177.965 45.3661)" fill="#6E1B35"/>
<circle cx="177.961" cy="143.575" r="1.60663" transform="rotate(172.5 177.961 143.575)" fill="#6E1B35"/>
<circle cx="177.991" cy="39.21" r="1.60663" transform="rotate(6.66667 177.991 39.21)" fill="#6E1B35"/>
<circle cx="177.982" cy="149.729" r="1.60663" transform="rotate(173.333 177.982 149.729)" fill="#6E1B35"/>
<circle cx="169.085" cy="97.9504" r="1.60663" transform="rotate(120 169.085 97.9504)" fill="#6E1B35"/>
<circle cx="169.117" cy="90.9896" r="1.60663" transform="rotate(60 169.117 90.9896)" fill="#6E1B35"/>
<circle cx="169.072" cy="84.0297" r="1.60663" transform="rotate(30 169.072 84.0297)" fill="#6E1B35"/>
<circle cx="169.118" cy="104.91" r="1.60663" transform="rotate(150 169.118 104.91)" fill="#6E1B35"/>
<circle cx="169.091" cy="77.2047" r="1.60663" transform="rotate(20 169.091 77.2047)" fill="#6E1B35"/>
<circle cx="169.093" cy="111.733" r="1.60663" transform="rotate(160 169.093 111.733)" fill="#6E1B35"/>
<circle cx="169.074" cy="70.6083" r="1.60663" transform="rotate(15 169.074 70.6083)" fill="#6E1B35"/>
<circle cx="169.087" cy="118.333" r="1.60663" transform="rotate(165 169.087 118.333)" fill="#6E1B35"/>
<circle cx="169.111" cy="64.1643" r="1.60663" transform="rotate(12 169.111 64.1643)" fill="#6E1B35"/>
<circle cx="169.116" cy="124.776" r="1.60663" transform="rotate(168 169.116 124.776)" fill="#6E1B35"/>
<circle cx="169.112" cy="57.827" r="1.60663" transform="rotate(10 169.112 57.827)" fill="#6E1B35"/>
<circle cx="169.098" cy="131.113" r="1.60663" transform="rotate(170 169.098 131.113)" fill="#6E1B35"/>
<circle cx="169.093" cy="51.5674" r="1.60663" transform="rotate(8.57143 169.093 51.5674)" fill="#6E1B35"/>
<circle cx="169.098" cy="137.372" r="1.60663" transform="rotate(171.429 169.098 137.372)" fill="#6E1B35"/>
<circle cx="169.096" cy="45.3661" r="1.60663" transform="rotate(7.5 169.096 45.3661)" fill="#6E1B35"/>
<circle cx="169.092" cy="143.575" r="1.60663" transform="rotate(172.5 169.092 143.575)" fill="#6E1B35"/>
<circle cx="169.122" cy="39.21" r="1.60663" transform="rotate(6.66667 169.122 39.21)" fill="#6E1B35"/>
<circle cx="169.112" cy="149.729" r="1.60663" transform="rotate(173.333 169.112 149.729)" fill="#6E1B35"/>
<circle cx="160.215" cy="97.9504" r="1.60663" transform="rotate(120 160.215 97.9504)" fill="#6E1B35"/>
<circle cx="160.248" cy="90.9896" r="1.60663" transform="rotate(60 160.248 90.9896)" fill="#6E1B35"/>
<circle cx="160.203" cy="84.0297" r="1.60663" transform="rotate(30 160.203 84.0297)" fill="#6E1B35"/>
<circle cx="160.249" cy="104.91" r="1.60663" transform="rotate(150 160.249 104.91)" fill="#6E1B35"/>
<circle cx="160.222" cy="77.2047" r="1.60663" transform="rotate(20 160.222 77.2047)" fill="#6E1B35"/>
<circle cx="160.224" cy="111.734" r="1.60663" transform="rotate(160 160.224 111.734)" fill="#6E1B35"/>
<circle cx="160.204" cy="70.6083" r="1.60663" transform="rotate(15 160.204 70.6083)" fill="#6E1B35"/>
<circle cx="160.218" cy="118.333" r="1.60663" transform="rotate(165 160.218 118.333)" fill="#6E1B35"/>
<circle cx="160.241" cy="64.1643" r="1.60663" transform="rotate(12 160.241 64.1643)" fill="#6E1B35"/>
<circle cx="160.247" cy="124.776" r="1.60663" transform="rotate(168 160.247 124.776)" fill="#6E1B35"/>
<circle cx="160.243" cy="57.827" r="1.60663" transform="rotate(10 160.243 57.827)" fill="#6E1B35"/>
<circle cx="160.229" cy="131.113" r="1.60663" transform="rotate(170 160.229 131.113)" fill="#6E1B35"/>
<circle cx="160.224" cy="51.5674" r="1.60663" transform="rotate(8.57143 160.224 51.5674)" fill="#6E1B35"/>
<circle cx="160.229" cy="137.372" r="1.60663" transform="rotate(171.429 160.229 137.372)" fill="#6E1B35"/>
<circle cx="160.227" cy="45.3661" r="1.60663" transform="rotate(7.5 160.227 45.3661)" fill="#6E1B35"/>
<circle cx="160.223" cy="143.575" r="1.60663" transform="rotate(172.5 160.223 143.575)" fill="#6E1B35"/>
<circle cx="160.253" cy="39.21" r="1.60663" transform="rotate(6.66667 160.253 39.21)" fill="#6E1B35"/>
<circle cx="160.243" cy="149.729" r="1.60663" transform="rotate(173.333 160.243 149.729)" fill="#6E1B35"/>
<circle cx="151.346" cy="97.9504" r="1.60663" transform="rotate(120 151.346 97.9504)" fill="#6E1B35"/>
<circle cx="151.379" cy="90.9896" r="1.60663" transform="rotate(60 151.379 90.9896)" fill="#6E1B35"/>
<circle cx="151.334" cy="84.0297" r="1.60663" transform="rotate(30 151.334 84.0297)" fill="#6E1B35"/>
<circle cx="151.38" cy="104.91" r="1.60663" transform="rotate(150 151.38 104.91)" fill="#6E1B35"/>
<circle cx="151.353" cy="77.2047" r="1.60663" transform="rotate(20 151.353 77.2047)" fill="#6E1B35"/>
<circle cx="151.355" cy="111.735" r="1.60663" transform="rotate(160 151.355 111.735)" fill="#6E1B35"/>
<circle cx="151.335" cy="70.6083" r="1.60663" transform="rotate(15 151.335 70.6083)" fill="#6E1B35"/>
<circle cx="151.349" cy="118.333" r="1.60663" transform="rotate(165 151.349 118.333)" fill="#6E1B35"/>
<circle cx="151.372" cy="64.1643" r="1.60663" transform="rotate(12 151.372 64.1643)" fill="#6E1B35"/>
<circle cx="151.378" cy="124.776" r="1.60663" transform="rotate(168 151.378 124.776)" fill="#6E1B35"/>
<circle cx="151.374" cy="57.827" r="1.60663" transform="rotate(10 151.374 57.827)" fill="#6E1B35"/>
<circle cx="151.359" cy="131.113" r="1.60663" transform="rotate(170 151.359 131.113)" fill="#6E1B35"/>
<circle cx="151.355" cy="51.5674" r="1.60663" transform="rotate(8.57143 151.355 51.5674)" fill="#6E1B35"/>
<circle cx="151.359" cy="137.373" r="1.60663" transform="rotate(171.429 151.359 137.373)" fill="#6E1B35"/>
<circle cx="151.358" cy="45.3661" r="1.60663" transform="rotate(7.5 151.358 45.3661)" fill="#6E1B35"/>
<circle cx="151.354" cy="143.575" r="1.60663" transform="rotate(172.5 151.354 143.575)" fill="#6E1B35"/>
<circle cx="151.384" cy="39.21" r="1.60663" transform="rotate(6.66667 151.384 39.21)" fill="#6E1B35"/>
<circle cx="151.374" cy="149.729" r="1.60663" transform="rotate(173.333 151.374 149.729)" fill="#6E1B35"/>
<circle cx="142.477" cy="97.9504" r="1.60663" transform="rotate(120 142.477 97.9504)" fill="#6E1B35"/>
<circle cx="142.509" cy="90.9896" r="1.60663" transform="rotate(60 142.509 90.9896)" fill="#6E1B35"/>
<circle cx="142.465" cy="84.0297" r="1.60663" transform="rotate(30 142.465 84.0297)" fill="#6E1B35"/>
<circle cx="142.51" cy="104.91" r="1.60663" transform="rotate(150 142.51 104.91)" fill="#6E1B35"/>
<circle cx="142.484" cy="77.2047" r="1.60663" transform="rotate(20 142.484 77.2047)" fill="#6E1B35"/>
<circle cx="142.486" cy="111.735" r="1.60663" transform="rotate(160 142.486 111.735)" fill="#6E1B35"/>
<circle cx="142.466" cy="70.6083" r="1.60663" transform="rotate(15 142.466 70.6083)" fill="#6E1B35"/>
<circle cx="142.479" cy="118.333" r="1.60663" transform="rotate(165 142.479 118.333)" fill="#6E1B35"/>
<circle cx="142.503" cy="64.1643" r="1.60663" transform="rotate(12 142.503 64.1643)" fill="#6E1B35"/>
<circle cx="142.508" cy="124.776" r="1.60663" transform="rotate(168 142.508 124.776)" fill="#6E1B35"/>
<circle cx="142.504" cy="57.827" r="1.60663" transform="rotate(10 142.504 57.827)" fill="#6E1B35"/>
<circle cx="142.49" cy="131.113" r="1.60663" transform="rotate(170 142.49 131.113)" fill="#6E1B35"/>
<circle cx="142.488" cy="51.5674" r="1.60663" transform="rotate(8.57143 142.488 51.5674)" fill="#6E1B35"/>
<circle cx="142.49" cy="137.373" r="1.60663" transform="rotate(171.429 142.49 137.373)" fill="#6E1B35"/>
<circle cx="142.489" cy="45.3661" r="1.60663" transform="rotate(7.5 142.489 45.3661)" fill="#6E1B35"/>
<circle cx="142.485" cy="143.575" r="1.60663" transform="rotate(172.5 142.485 143.575)" fill="#6E1B35"/>
<circle cx="142.515" cy="39.21" r="1.60663" transform="rotate(6.66667 142.515 39.21)" fill="#6E1B35"/>
<circle cx="142.505" cy="149.729" r="1.60663" transform="rotate(173.333 142.505 149.729)" fill="#6E1B35"/>
<circle cx="133.608" cy="97.9504" r="1.60663" transform="rotate(120 133.608 97.9504)" fill="#6E1B35"/>
<circle cx="133.64" cy="90.9896" r="1.60663" transform="rotate(60 133.64 90.9896)" fill="#6E1B35"/>
<circle cx="133.596" cy="84.0297" r="1.60663" transform="rotate(30 133.596 84.0297)" fill="#6E1B35"/>
<circle cx="133.641" cy="104.91" r="1.60663" transform="rotate(150 133.641 104.91)" fill="#6E1B35"/>
<circle cx="133.615" cy="77.2047" r="1.60663" transform="rotate(20 133.615 77.2047)" fill="#6E1B35"/>
<circle cx="133.617" cy="111.734" r="1.60663" transform="rotate(160 133.617 111.734)" fill="#6E1B35"/>
<circle cx="133.597" cy="70.6083" r="1.60663" transform="rotate(15 133.597 70.6083)" fill="#6E1B35"/>
<circle cx="133.61" cy="118.333" r="1.60663" transform="rotate(165 133.61 118.333)" fill="#6E1B35"/>
<circle cx="133.634" cy="64.1643" r="1.60663" transform="rotate(12 133.634 64.1643)" fill="#6E1B35"/>
<circle cx="133.639" cy="124.776" r="1.60663" transform="rotate(168 133.639 124.776)" fill="#6E1B35"/>
<circle cx="133.635" cy="57.827" r="1.60663" transform="rotate(10 133.635 57.827)" fill="#6E1B35"/>
<circle cx="133.621" cy="131.113" r="1.60663" transform="rotate(170 133.621 131.113)" fill="#6E1B35"/>
<circle cx="133.617" cy="51.5674" r="1.60663" transform="rotate(8.57143 133.617 51.5674)" fill="#6E1B35"/>
<circle cx="133.621" cy="137.372" r="1.60663" transform="rotate(171.429 133.621 137.372)" fill="#6E1B35"/>
<circle cx="133.62" cy="45.3661" r="1.60663" transform="rotate(7.5 133.62 45.3661)" fill="#6E1B35"/>
<circle cx="133.616" cy="143.575" r="1.60663" transform="rotate(172.5 133.616 143.575)" fill="#6E1B35"/>
<circle cx="133.646" cy="39.21" r="1.60663" transform="rotate(6.66667 133.646 39.21)" fill="#6E1B35"/>
<circle cx="133.636" cy="149.729" r="1.60663" transform="rotate(173.333 133.636 149.729)" fill="#6E1B35"/>
<circle cx="124.743" cy="97.9504" r="1.60663" transform="rotate(120 124.743 97.9504)" fill="#6E1B35"/>
<circle cx="124.775" cy="90.9896" r="1.60663" transform="rotate(60 124.775 90.9896)" fill="#6E1B35"/>
<circle cx="124.731" cy="84.0297" r="1.60663" transform="rotate(30 124.731 84.0297)" fill="#6E1B35"/>
<circle cx="124.776" cy="104.91" r="1.60663" transform="rotate(150 124.776 104.91)" fill="#6E1B35"/>
<circle cx="124.749" cy="77.2047" r="1.60663" transform="rotate(20 124.749 77.2047)" fill="#6E1B35"/>
<circle cx="124.751" cy="111.734" r="1.60663" transform="rotate(160 124.751 111.734)" fill="#6E1B35"/>
<circle cx="124.732" cy="70.6083" r="1.60663" transform="rotate(15 124.732 70.6083)" fill="#6E1B35"/>
<circle cx="124.745" cy="118.333" r="1.60663" transform="rotate(165 124.745 118.333)" fill="#6E1B35"/>
<circle cx="124.769" cy="64.1643" r="1.60663" transform="rotate(12 124.769 64.1643)" fill="#6E1B35"/>
<circle cx="124.774" cy="124.776" r="1.60663" transform="rotate(168 124.774 124.776)" fill="#6E1B35"/>
<circle cx="124.77" cy="57.827" r="1.60663" transform="rotate(10 124.77 57.827)" fill="#6E1B35"/>
<circle cx="124.756" cy="131.113" r="1.60663" transform="rotate(170 124.756 131.113)" fill="#6E1B35"/>
<circle cx="124.752" cy="51.5674" r="1.60663" transform="rotate(8.57143 124.752 51.5674)" fill="#6E1B35"/>
<circle cx="124.756" cy="137.372" r="1.60663" transform="rotate(171.429 124.756 137.372)" fill="#6E1B35"/>
<circle cx="124.754" cy="45.3661" r="1.60663" transform="rotate(7.5 124.754 45.3661)" fill="#6E1B35"/>
<circle cx="124.75" cy="143.575" r="1.60663" transform="rotate(172.5 124.75 143.575)" fill="#6E1B35"/>
<circle cx="124.78" cy="39.21" r="1.60663" transform="rotate(6.66667 124.78 39.21)" fill="#6E1B35"/>
<circle cx="124.771" cy="149.729" r="1.60663" transform="rotate(173.333 124.771 149.729)" fill="#6E1B35"/>
<circle cx="115.874" cy="97.9504" r="1.60663" transform="rotate(120 115.874 97.9504)" fill="#6E1B35"/>
<circle cx="115.906" cy="90.9896" r="1.60663" transform="rotate(60 115.906 90.9896)" fill="#6E1B35"/>
<circle cx="115.862" cy="84.0297" r="1.60663" transform="rotate(30 115.862 84.0297)" fill="#6E1B35"/>
<circle cx="115.907" cy="104.91" r="1.60663" transform="rotate(150 115.907 104.91)" fill="#6E1B35"/>
<circle cx="115.88" cy="77.2047" r="1.60663" transform="rotate(20 115.88 77.2047)" fill="#6E1B35"/>
<circle cx="115.882" cy="111.733" r="1.60663" transform="rotate(160 115.882 111.733)" fill="#6E1B35"/>
<circle cx="115.863" cy="70.6083" r="1.60663" transform="rotate(15 115.863 70.6083)" fill="#6E1B35"/>
<circle cx="115.876" cy="118.333" r="1.60663" transform="rotate(165 115.876 118.333)" fill="#6E1B35"/>
<circle cx="115.9" cy="64.1643" r="1.60663" transform="rotate(12 115.9 64.1643)" fill="#6E1B35"/>
<circle cx="115.905" cy="124.776" r="1.60663" transform="rotate(168 115.905 124.776)" fill="#6E1B35"/>
<circle cx="115.901" cy="57.827" r="1.60663" transform="rotate(10 115.901 57.827)" fill="#6E1B35"/>
<circle cx="115.887" cy="131.113" r="1.60663" transform="rotate(170 115.887 131.113)" fill="#6E1B35"/>
<circle cx="115.882" cy="51.5674" r="1.60663" transform="rotate(8.57143 115.882 51.5674)" fill="#6E1B35"/>
<circle cx="115.887" cy="137.372" r="1.60663" transform="rotate(171.429 115.887 137.372)" fill="#6E1B35"/>
<circle cx="115.885" cy="45.3661" r="1.60663" transform="rotate(7.5 115.885 45.3661)" fill="#6E1B35"/>
<circle cx="115.881" cy="143.575" r="1.60663" transform="rotate(172.5 115.881 143.575)" fill="#6E1B35"/>
<circle cx="115.911" cy="39.21" r="1.60663" transform="rotate(6.66667 115.911 39.21)" fill="#6E1B35"/>
<circle cx="115.901" cy="149.729" r="1.60663" transform="rotate(173.333 115.901 149.729)" fill="#6E1B35"/>
<circle cx="107.005" cy="97.9504" r="1.60663" transform="rotate(120 107.005 97.9504)" fill="#6E1B35"/>
<circle cx="107.037" cy="90.9896" r="1.60663" transform="rotate(60 107.037 90.9896)" fill="#6E1B35"/>
<circle cx="106.992" cy="84.0297" r="1.60663" transform="rotate(30 106.992 84.0297)" fill="#6E1B35"/>
<circle cx="107.038" cy="104.91" r="1.60663" transform="rotate(150 107.038 104.91)" fill="#6E1B35"/>
<circle cx="107.011" cy="77.2047" r="1.60663" transform="rotate(20 107.011 77.2047)" fill="#6E1B35"/>
<circle cx="107.013" cy="111.734" r="1.60663" transform="rotate(160 107.013 111.734)" fill="#6E1B35"/>
<circle cx="106.993" cy="70.6083" r="1.60663" transform="rotate(15 106.993 70.6083)" fill="#6E1B35"/>
<circle cx="107.007" cy="118.333" r="1.60663" transform="rotate(165 107.007 118.333)" fill="#6E1B35"/>
<circle cx="107.03" cy="64.1643" r="1.60663" transform="rotate(12 107.03 64.1643)" fill="#6E1B35"/>
<circle cx="107.036" cy="124.776" r="1.60663" transform="rotate(168 107.036 124.776)" fill="#6E1B35"/>
<circle cx="107.032" cy="57.827" r="1.60663" transform="rotate(10 107.032 57.827)" fill="#6E1B35"/>
<circle cx="107.018" cy="131.113" r="1.60663" transform="rotate(170 107.018 131.113)" fill="#6E1B35"/>
<circle cx="107.013" cy="51.5674" r="1.60663" transform="rotate(8.57143 107.013 51.5674)" fill="#6E1B35"/>
<circle cx="107.018" cy="137.372" r="1.60663" transform="rotate(171.429 107.018 137.372)" fill="#6E1B35"/>
<circle cx="107.016" cy="45.3661" r="1.60663" transform="rotate(7.5 107.016 45.3661)" fill="#6E1B35"/>
<circle cx="107.012" cy="143.575" r="1.60663" transform="rotate(172.5 107.012 143.575)" fill="#6E1B35"/>
<circle cx="107.042" cy="39.21" r="1.60663" transform="rotate(6.66667 107.042 39.21)" fill="#6E1B35"/>
<circle cx="107.032" cy="149.729" r="1.60663" transform="rotate(173.333 107.032 149.729)" fill="#6E1B35"/>
<circle cx="98.1356" cy="97.9504" r="1.60663" transform="rotate(120 98.1356 97.9504)" fill="#6E1B35"/>
<circle cx="98.168" cy="90.9896" r="1.60663" transform="rotate(60 98.168 90.9896)" fill="#6E1B35"/>
<circle cx="98.1234" cy="84.0297" r="1.60663" transform="rotate(30 98.1234 84.0297)" fill="#6E1B35"/>
<circle cx="98.1688" cy="104.91" r="1.60663" transform="rotate(150 98.1688 104.91)" fill="#6E1B35"/>
<circle cx="98.1421" cy="77.2047" r="1.60663" transform="rotate(20 98.1421 77.2047)" fill="#6E1B35"/>
<circle cx="98.1441" cy="111.735" r="1.60663" transform="rotate(160 98.1441 111.735)" fill="#6E1B35"/>
<circle cx="98.1245" cy="70.6083" r="1.60663" transform="rotate(15 98.1245 70.6083)" fill="#6E1B35"/>
<circle cx="98.138" cy="118.333" r="1.60663" transform="rotate(165 98.138 118.333)" fill="#6E1B35"/>
<circle cx="98.1615" cy="64.1643" r="1.60663" transform="rotate(12 98.1615 64.1643)" fill="#6E1B35"/>
<circle cx="98.1669" cy="124.776" r="1.60663" transform="rotate(168 98.1669 124.776)" fill="#6E1B35"/>
<circle cx="98.1628" cy="57.827" r="1.60663" transform="rotate(10 98.1628 57.827)" fill="#6E1B35"/>
<circle cx="98.1488" cy="131.113" r="1.60663" transform="rotate(170 98.1488 131.113)" fill="#6E1B35"/>
<circle cx="98.1463" cy="51.5674" r="1.60663" transform="rotate(8.57143 98.1463 51.5674)" fill="#6E1B35"/>
<circle cx="98.1486" cy="137.373" r="1.60663" transform="rotate(171.429 98.1486 137.373)" fill="#6E1B35"/>
<circle cx="98.1471" cy="45.3661" r="1.60663" transform="rotate(7.5 98.1471 45.3661)" fill="#6E1B35"/>
<circle cx="98.1431" cy="143.575" r="1.60663" transform="rotate(172.5 98.1431 143.575)" fill="#6E1B35"/>
<circle cx="98.1731" cy="39.21" r="1.60663" transform="rotate(6.66667 98.1731 39.21)" fill="#6E1B35"/>
<circle cx="98.1634" cy="149.729" r="1.60663" transform="rotate(173.333 98.1634 149.729)" fill="#6E1B35"/>
<circle cx="89.2661" cy="97.9504" r="1.60663" transform="rotate(120 89.2661 97.9504)" fill="#6E1B35"/>
<circle cx="89.2985" cy="90.9896" r="1.60663" transform="rotate(60 89.2985 90.9896)" fill="#6E1B35"/>
<circle cx="89.254" cy="84.0297" r="1.60663" transform="rotate(30 89.254 84.0297)" fill="#6E1B35"/>
<circle cx="89.2993" cy="104.91" r="1.60663" transform="rotate(150 89.2993 104.91)" fill="#6E1B35"/>
<circle cx="89.2726" cy="77.2047" r="1.60663" transform="rotate(20 89.2726 77.2047)" fill="#6E1B35"/>
<circle cx="89.2746" cy="111.734" r="1.60663" transform="rotate(160 89.2746 111.734)" fill="#6E1B35"/>
<circle cx="89.2551" cy="70.6083" r="1.60663" transform="rotate(15 89.2551 70.6083)" fill="#6E1B35"/>
<circle cx="89.2685" cy="118.333" r="1.60663" transform="rotate(165 89.2685 118.333)" fill="#6E1B35"/>
<circle cx="89.2921" cy="64.1643" r="1.60663" transform="rotate(12 89.2921 64.1643)" fill="#6E1B35"/>
<circle cx="89.2975" cy="124.776" r="1.60663" transform="rotate(168 89.2975 124.776)" fill="#6E1B35"/>
<circle cx="89.2934" cy="57.827" r="1.60663" transform="rotate(10 89.2934 57.827)" fill="#6E1B35"/>
<circle cx="89.2793" cy="131.113" r="1.60663" transform="rotate(170 89.2793 131.113)" fill="#6E1B35"/>
<circle cx="89.2749" cy="51.5674" r="1.60663" transform="rotate(8.57143 89.2749 51.5674)" fill="#6E1B35"/>
<circle cx="89.2792" cy="137.372" r="1.60663" transform="rotate(171.429 89.2792 137.372)" fill="#6E1B35"/>
<circle cx="89.2776" cy="45.3661" r="1.60663" transform="rotate(7.5 89.2776 45.3661)" fill="#6E1B35"/>
<circle cx="89.2737" cy="143.575" r="1.60663" transform="rotate(172.5 89.2737 143.575)" fill="#6E1B35"/>
<circle cx="89.3037" cy="39.21" r="1.60663" transform="rotate(6.66667 89.3037 39.21)" fill="#6E1B35"/>
<circle cx="89.294" cy="149.729" r="1.60663" transform="rotate(173.333 89.294 149.729)" fill="#6E1B35"/>
<circle cx="191.255" cy="101.484" r="1.60663" transform="rotate(120 191.255 101.484)" fill="#6E1B35"/>
<circle cx="191.287" cy="94.5228" r="1.60663" transform="rotate(60 191.287 94.5228)" fill="#6E1B35"/>
<circle cx="191.242" cy="87.5629" r="1.60663" transform="rotate(30 191.242 87.5629)" fill="#6E1B35"/>
<circle cx="191.288" cy="108.443" r="1.60663" transform="rotate(150 191.288 108.443)" fill="#6E1B35"/>
<circle cx="191.261" cy="80.7379" r="1.60663" transform="rotate(20 191.261 80.7379)" fill="#6E1B35"/>
<circle cx="191.263" cy="115.268" r="1.60663" transform="rotate(160 191.263 115.268)" fill="#6E1B35"/>
<circle cx="191.245" cy="74.1415" r="1.60663" transform="rotate(15 191.245 74.1415)" fill="#6E1B35"/>
<circle cx="191.257" cy="121.866" r="1.60663" transform="rotate(165 191.257 121.866)" fill="#6E1B35"/>
<circle cx="191.28" cy="67.6975" r="1.60663" transform="rotate(12 191.28 67.6975)" fill="#6E1B35"/>
<circle cx="191.286" cy="128.309" r="1.60663" transform="rotate(168 191.286 128.309)" fill="#6E1B35"/>
<circle cx="191.282" cy="61.3602" r="1.60663" transform="rotate(10 191.282 61.3602)" fill="#6E1B35"/>
<circle cx="191.268" cy="134.646" r="1.60663" transform="rotate(170 191.268 134.646)" fill="#6E1B35"/>
<circle cx="191.263" cy="55.1006" r="1.60663" transform="rotate(8.57143 191.263 55.1006)" fill="#6E1B35"/>
<circle cx="191.27" cy="140.906" r="1.60663" transform="rotate(171.429 191.27 140.906)" fill="#6E1B35"/>
<circle cx="191.266" cy="48.8993" r="1.60663" transform="rotate(7.5 191.266 48.8993)" fill="#6E1B35"/>
<circle cx="191.262" cy="147.108" r="1.60663" transform="rotate(172.5 191.262 147.108)" fill="#6E1B35"/>
<circle cx="191.292" cy="42.7432" r="1.60663" transform="rotate(6.66667 191.292 42.7432)" fill="#6E1B35"/>
<circle cx="191.282" cy="153.263" r="1.60663" transform="rotate(173.333 191.282 153.263)" fill="#6E1B35"/>
<circle cx="182.387" cy="101.484" r="1.60663" transform="rotate(120 182.387 101.484)" fill="#6E1B35"/>
<circle cx="182.42" cy="94.5228" r="1.60663" transform="rotate(60 182.42 94.5228)" fill="#6E1B35"/>
<circle cx="182.375" cy="87.5629" r="1.60663" transform="rotate(30 182.375 87.5629)" fill="#6E1B35"/>
<circle cx="182.421" cy="108.443" r="1.60663" transform="rotate(150 182.421 108.443)" fill="#6E1B35"/>
<circle cx="182.394" cy="80.7379" r="1.60663" transform="rotate(20 182.394 80.7379)" fill="#6E1B35"/>
<circle cx="182.396" cy="115.268" r="1.60663" transform="rotate(160 182.396 115.268)" fill="#6E1B35"/>
<circle cx="182.376" cy="74.1415" r="1.60663" transform="rotate(15 182.376 74.1415)" fill="#6E1B35"/>
<circle cx="182.39" cy="121.866" r="1.60663" transform="rotate(165 182.39 121.866)" fill="#6E1B35"/>
<circle cx="182.413" cy="67.6975" r="1.60663" transform="rotate(12 182.413 67.6975)" fill="#6E1B35"/>
<circle cx="182.419" cy="128.309" r="1.60663" transform="rotate(168 182.419 128.309)" fill="#6E1B35"/>
<circle cx="182.415" cy="61.3602" r="1.60663" transform="rotate(10 182.415 61.3602)" fill="#6E1B35"/>
<circle cx="182.401" cy="134.646" r="1.60663" transform="rotate(170 182.401 134.646)" fill="#6E1B35"/>
<circle cx="182.396" cy="55.1006" r="1.60663" transform="rotate(8.57143 182.396 55.1006)" fill="#6E1B35"/>
<circle cx="182.402" cy="140.906" r="1.60663" transform="rotate(171.429 182.402 140.906)" fill="#6E1B35"/>
<circle cx="182.399" cy="48.8993" r="1.60663" transform="rotate(7.5 182.399 48.8993)" fill="#6E1B35"/>
<circle cx="182.395" cy="147.108" r="1.60663" transform="rotate(172.5 182.395 147.108)" fill="#6E1B35"/>
<circle cx="182.425" cy="42.7432" r="1.60663" transform="rotate(6.66667 182.425 42.7432)" fill="#6E1B35"/>
<circle cx="182.415" cy="153.263" r="1.60663" transform="rotate(173.333 182.415 153.263)" fill="#6E1B35"/>
<circle cx="173.518" cy="101.484" r="1.60663" transform="rotate(120 173.518 101.484)" fill="#6E1B35"/>
<circle cx="173.551" cy="94.5228" r="1.60663" transform="rotate(60 173.551 94.5228)" fill="#6E1B35"/>
<circle cx="173.506" cy="87.5629" r="1.60663" transform="rotate(30 173.506 87.5629)" fill="#6E1B35"/>
<circle cx="173.551" cy="108.443" r="1.60663" transform="rotate(150 173.551 108.443)" fill="#6E1B35"/>
<circle cx="173.525" cy="80.7379" r="1.60663" transform="rotate(20 173.525 80.7379)" fill="#6E1B35"/>
<circle cx="173.527" cy="115.268" r="1.60663" transform="rotate(160 173.527 115.268)" fill="#6E1B35"/>
<circle cx="173.507" cy="74.1415" r="1.60663" transform="rotate(15 173.507 74.1415)" fill="#6E1B35"/>
<circle cx="173.521" cy="121.866" r="1.60663" transform="rotate(165 173.521 121.866)" fill="#6E1B35"/>
<circle cx="173.544" cy="67.6975" r="1.60663" transform="rotate(12 173.544 67.6975)" fill="#6E1B35"/>
<circle cx="173.55" cy="128.309" r="1.60663" transform="rotate(168 173.55 128.309)" fill="#6E1B35"/>
<circle cx="173.545" cy="61.3602" r="1.60663" transform="rotate(10 173.545 61.3602)" fill="#6E1B35"/>
<circle cx="173.531" cy="134.646" r="1.60663" transform="rotate(170 173.531 134.646)" fill="#6E1B35"/>
<circle cx="173.527" cy="55.1006" r="1.60663" transform="rotate(8.57143 173.527 55.1006)" fill="#6E1B35"/>
<circle cx="173.531" cy="140.906" r="1.60663" transform="rotate(171.429 173.531 140.906)" fill="#6E1B35"/>
<circle cx="173.53" cy="48.8993" r="1.60663" transform="rotate(7.5 173.53 48.8993)" fill="#6E1B35"/>
<circle cx="173.526" cy="147.108" r="1.60663" transform="rotate(172.5 173.526 147.108)" fill="#6E1B35"/>
<circle cx="173.556" cy="42.7432" r="1.60663" transform="rotate(6.66667 173.556 42.7432)" fill="#6E1B35"/>
<circle cx="173.546" cy="153.263" r="1.60663" transform="rotate(173.333 173.546 153.263)" fill="#6E1B35"/>
<circle cx="164.649" cy="101.484" r="1.60663" transform="rotate(120 164.649 101.484)" fill="#6E1B35"/>
<circle cx="164.681" cy="94.5228" r="1.60663" transform="rotate(60 164.681 94.5228)" fill="#6E1B35"/>
<circle cx="164.637" cy="87.5629" r="1.60663" transform="rotate(30 164.637 87.5629)" fill="#6E1B35"/>
<circle cx="164.682" cy="108.443" r="1.60663" transform="rotate(150 164.682 108.443)" fill="#6E1B35"/>
<circle cx="164.656" cy="80.7379" r="1.60663" transform="rotate(20 164.656 80.7379)" fill="#6E1B35"/>
<circle cx="164.656" cy="115.268" r="1.60663" transform="rotate(160 164.656 115.268)" fill="#6E1B35"/>
<circle cx="164.638" cy="74.1415" r="1.60663" transform="rotate(15 164.638 74.1415)" fill="#6E1B35"/>
<circle cx="164.651" cy="121.866" r="1.60663" transform="rotate(165 164.651 121.866)" fill="#6E1B35"/>
<circle cx="164.675" cy="67.6975" r="1.60663" transform="rotate(12 164.675 67.6975)" fill="#6E1B35"/>
<circle cx="164.68" cy="128.309" r="1.60663" transform="rotate(168 164.68 128.309)" fill="#6E1B35"/>
<circle cx="164.676" cy="61.3602" r="1.60663" transform="rotate(10 164.676 61.3602)" fill="#6E1B35"/>
<circle cx="164.662" cy="134.646" r="1.60663" transform="rotate(170 164.662 134.646)" fill="#6E1B35"/>
<circle cx="164.658" cy="55.1006" r="1.60663" transform="rotate(8.57143 164.658 55.1006)" fill="#6E1B35"/>
<circle cx="164.662" cy="140.906" r="1.60663" transform="rotate(171.429 164.662 140.906)" fill="#6E1B35"/>
<circle cx="164.661" cy="48.8993" r="1.60663" transform="rotate(7.5 164.661 48.8993)" fill="#6E1B35"/>
<circle cx="164.657" cy="147.108" r="1.60663" transform="rotate(172.5 164.657 147.108)" fill="#6E1B35"/>
<circle cx="164.687" cy="42.7432" r="1.60663" transform="rotate(6.66667 164.687 42.7432)" fill="#6E1B35"/>
<circle cx="164.677" cy="153.263" r="1.60663" transform="rotate(173.333 164.677 153.263)" fill="#6E1B35"/>
<circle cx="155.782" cy="101.484" r="1.60663" transform="rotate(120 155.782 101.484)" fill="#6E1B35"/>
<circle cx="155.814" cy="94.5228" r="1.60663" transform="rotate(60 155.814 94.5228)" fill="#6E1B35"/>
<circle cx="155.77" cy="87.5629" r="1.60663" transform="rotate(30 155.77 87.5629)" fill="#6E1B35"/>
<circle cx="155.815" cy="108.443" r="1.60663" transform="rotate(150 155.815 108.443)" fill="#6E1B35"/>
<circle cx="155.788" cy="80.7379" r="1.60663" transform="rotate(20 155.788 80.7379)" fill="#6E1B35"/>
<circle cx="155.79" cy="115.268" r="1.60663" transform="rotate(160 155.79 115.268)" fill="#6E1B35"/>
<circle cx="155.771" cy="74.1415" r="1.60663" transform="rotate(15 155.771 74.1415)" fill="#6E1B35"/>
<circle cx="155.784" cy="121.866" r="1.60663" transform="rotate(165 155.784 121.866)" fill="#6E1B35"/>
<circle cx="155.808" cy="67.6975" r="1.60663" transform="rotate(12 155.808 67.6975)" fill="#6E1B35"/>
<circle cx="155.813" cy="128.309" r="1.60663" transform="rotate(168 155.813 128.309)" fill="#6E1B35"/>
<circle cx="155.809" cy="61.3602" r="1.60663" transform="rotate(10 155.809 61.3602)" fill="#6E1B35"/>
<circle cx="155.795" cy="134.646" r="1.60663" transform="rotate(170 155.795 134.646)" fill="#6E1B35"/>
<circle cx="155.791" cy="55.1006" r="1.60663" transform="rotate(8.57143 155.791 55.1006)" fill="#6E1B35"/>
<circle cx="155.795" cy="140.906" r="1.60663" transform="rotate(171.429 155.795 140.906)" fill="#6E1B35"/>
<circle cx="155.793" cy="48.8993" r="1.60663" transform="rotate(7.5 155.793 48.8993)" fill="#6E1B35"/>
<circle cx="155.789" cy="147.108" r="1.60663" transform="rotate(172.5 155.789 147.108)" fill="#6E1B35"/>
<circle cx="155.819" cy="42.7432" r="1.60663" transform="rotate(6.66667 155.819 42.7432)" fill="#6E1B35"/>
<circle cx="155.81" cy="153.263" r="1.60663" transform="rotate(173.333 155.81 153.263)" fill="#6E1B35"/>
<circle cx="146.911" cy="101.484" r="1.60663" transform="rotate(120 146.911 101.484)" fill="#6E1B35"/>
<circle cx="146.943" cy="94.5228" r="1.60663" transform="rotate(60 146.943 94.5228)" fill="#6E1B35"/>
<circle cx="146.899" cy="87.5629" r="1.60663" transform="rotate(30 146.899 87.5629)" fill="#6E1B35"/>
<circle cx="146.944" cy="108.443" r="1.60663" transform="rotate(150 146.944 108.443)" fill="#6E1B35"/>
<circle cx="146.917" cy="80.7379" r="1.60663" transform="rotate(20 146.917 80.7379)" fill="#6E1B35"/>
<circle cx="146.919" cy="115.268" r="1.60663" transform="rotate(160 146.919 115.268)" fill="#6E1B35"/>
<circle cx="146.9" cy="74.1415" r="1.60663" transform="rotate(15 146.9 74.1415)" fill="#6E1B35"/>
<circle cx="146.913" cy="121.866" r="1.60663" transform="rotate(165 146.913 121.866)" fill="#6E1B35"/>
<circle cx="146.937" cy="67.6975" r="1.60663" transform="rotate(12 146.937 67.6975)" fill="#6E1B35"/>
<circle cx="146.942" cy="128.309" r="1.60663" transform="rotate(168 146.942 128.309)" fill="#6E1B35"/>
<circle cx="146.938" cy="61.3602" r="1.60663" transform="rotate(10 146.938 61.3602)" fill="#6E1B35"/>
<circle cx="146.924" cy="134.646" r="1.60663" transform="rotate(170 146.924 134.646)" fill="#6E1B35"/>
<circle cx="146.92" cy="55.1006" r="1.60663" transform="rotate(8.57143 146.92 55.1006)" fill="#6E1B35"/>
<circle cx="146.924" cy="140.906" r="1.60663" transform="rotate(171.429 146.924 140.906)" fill="#6E1B35"/>
<circle cx="146.922" cy="48.8993" r="1.60663" transform="rotate(7.5 146.922 48.8993)" fill="#6E1B35"/>
<circle cx="146.918" cy="147.108" r="1.60663" transform="rotate(172.5 146.918 147.108)" fill="#6E1B35"/>
<circle cx="146.948" cy="42.7432" r="1.60663" transform="rotate(6.66667 146.948 42.7432)" fill="#6E1B35"/>
<circle cx="146.939" cy="153.263" r="1.60663" transform="rotate(173.333 146.939 153.263)" fill="#6E1B35"/>
<circle cx="138.042" cy="101.484" r="1.60663" transform="rotate(120 138.042 101.484)" fill="#6E1B35"/>
<circle cx="138.074" cy="94.5228" r="1.60663" transform="rotate(60 138.074 94.5228)" fill="#6E1B35"/>
<circle cx="138.029" cy="87.5629" r="1.60663" transform="rotate(30 138.029 87.5629)" fill="#6E1B35"/>
<circle cx="138.075" cy="108.443" r="1.60663" transform="rotate(150 138.075 108.443)" fill="#6E1B35"/>
<circle cx="138.048" cy="80.7379" r="1.60663" transform="rotate(20 138.048 80.7379)" fill="#6E1B35"/>
<circle cx="138.05" cy="115.268" r="1.60663" transform="rotate(160 138.05 115.268)" fill="#6E1B35"/>
<circle cx="138.031" cy="74.1415" r="1.60663" transform="rotate(15 138.031 74.1415)" fill="#6E1B35"/>
<circle cx="138.044" cy="121.866" r="1.60663" transform="rotate(165 138.044 121.866)" fill="#6E1B35"/>
<circle cx="138.068" cy="67.6975" r="1.60663" transform="rotate(12 138.068 67.6975)" fill="#6E1B35"/>
<circle cx="138.073" cy="128.309" r="1.60663" transform="rotate(168 138.073 128.309)" fill="#6E1B35"/>
<circle cx="138.069" cy="61.3602" r="1.60663" transform="rotate(10 138.069 61.3602)" fill="#6E1B35"/>
<circle cx="138.055" cy="134.646" r="1.60663" transform="rotate(170 138.055 134.646)" fill="#6E1B35"/>
<circle cx="138.05" cy="55.1006" r="1.60663" transform="rotate(8.57143 138.05 55.1006)" fill="#6E1B35"/>
<circle cx="138.055" cy="140.906" r="1.60663" transform="rotate(171.429 138.055 140.906)" fill="#6E1B35"/>
<circle cx="138.053" cy="48.8993" r="1.60663" transform="rotate(7.5 138.053 48.8993)" fill="#6E1B35"/>
<circle cx="138.049" cy="147.108" r="1.60663" transform="rotate(172.5 138.049 147.108)" fill="#6E1B35"/>
<circle cx="138.079" cy="42.7432" r="1.60663" transform="rotate(6.66667 138.079 42.7432)" fill="#6E1B35"/>
<circle cx="138.069" cy="153.263" r="1.60663" transform="rotate(173.333 138.069 153.263)" fill="#6E1B35"/>
<circle cx="129.176" cy="101.484" r="1.60663" transform="rotate(120 129.176 101.484)" fill="#6E1B35"/>
<circle cx="129.209" cy="94.5228" r="1.60663" transform="rotate(60 129.209 94.5228)" fill="#6E1B35"/>
<circle cx="129.164" cy="87.5629" r="1.60663" transform="rotate(30 129.164 87.5629)" fill="#6E1B35"/>
<circle cx="129.21" cy="108.443" r="1.60663" transform="rotate(150 129.21 108.443)" fill="#6E1B35"/>
<circle cx="129.183" cy="80.7379" r="1.60663" transform="rotate(20 129.183 80.7379)" fill="#6E1B35"/>
<circle cx="129.185" cy="115.268" r="1.60663" transform="rotate(160 129.185 115.268)" fill="#6E1B35"/>
<circle cx="129.165" cy="74.1415" r="1.60663" transform="rotate(15 129.165 74.1415)" fill="#6E1B35"/>
<circle cx="129.179" cy="121.866" r="1.60663" transform="rotate(165 129.179 121.866)" fill="#6E1B35"/>
<circle cx="129.202" cy="67.6975" r="1.60663" transform="rotate(12 129.202 67.6975)" fill="#6E1B35"/>
<circle cx="129.208" cy="128.309" r="1.60663" transform="rotate(168 129.208 128.309)" fill="#6E1B35"/>
<circle cx="129.204" cy="61.3602" r="1.60663" transform="rotate(10 129.204 61.3602)" fill="#6E1B35"/>
<circle cx="129.19" cy="134.646" r="1.60663" transform="rotate(170 129.19 134.646)" fill="#6E1B35"/>
<circle cx="129.185" cy="55.1006" r="1.60663" transform="rotate(8.57143 129.185 55.1006)" fill="#6E1B35"/>
<circle cx="129.189" cy="140.906" r="1.60663" transform="rotate(171.429 129.189 140.906)" fill="#6E1B35"/>
<circle cx="129.188" cy="48.8993" r="1.60663" transform="rotate(7.5 129.188 48.8993)" fill="#6E1B35"/>
<circle cx="129.184" cy="147.108" r="1.60663" transform="rotate(172.5 129.184 147.108)" fill="#6E1B35"/>
<circle cx="129.214" cy="42.7432" r="1.60663" transform="rotate(6.66667 129.214 42.7432)" fill="#6E1B35"/>
<circle cx="129.204" cy="153.263" r="1.60663" transform="rotate(173.333 129.204 153.263)" fill="#6E1B35"/>
<circle cx="120.307" cy="101.484" r="1.60663" transform="rotate(120 120.307 101.484)" fill="#6E1B35"/>
<circle cx="120.34" cy="94.5228" r="1.60663" transform="rotate(60 120.34 94.5228)" fill="#6E1B35"/>
<circle cx="120.295" cy="87.5629" r="1.60663" transform="rotate(30 120.295 87.5629)" fill="#6E1B35"/>
<circle cx="120.34" cy="108.443" r="1.60663" transform="rotate(150 120.34 108.443)" fill="#6E1B35"/>
<circle cx="120.314" cy="80.7379" r="1.60663" transform="rotate(20 120.314 80.7379)" fill="#6E1B35"/>
<circle cx="120.316" cy="115.268" r="1.60663" transform="rotate(160 120.316 115.268)" fill="#6E1B35"/>
<circle cx="120.296" cy="74.1415" r="1.60663" transform="rotate(15 120.296 74.1415)" fill="#6E1B35"/>
<circle cx="120.31" cy="121.866" r="1.60663" transform="rotate(165 120.31 121.866)" fill="#6E1B35"/>
<circle cx="120.333" cy="67.6975" r="1.60663" transform="rotate(12 120.333 67.6975)" fill="#6E1B35"/>
<circle cx="120.339" cy="128.309" r="1.60663" transform="rotate(168 120.339 128.309)" fill="#6E1B35"/>
<circle cx="120.334" cy="61.3602" r="1.60663" transform="rotate(10 120.334 61.3602)" fill="#6E1B35"/>
<circle cx="120.32" cy="134.646" r="1.60663" transform="rotate(170 120.32 134.646)" fill="#6E1B35"/>
<circle cx="120.316" cy="55.1006" r="1.60663" transform="rotate(8.57143 120.316 55.1006)" fill="#6E1B35"/>
<circle cx="120.32" cy="140.906" r="1.60663" transform="rotate(171.429 120.32 140.906)" fill="#6E1B35"/>
<circle cx="120.319" cy="48.8993" r="1.60663" transform="rotate(7.5 120.319 48.8993)" fill="#6E1B35"/>
<circle cx="120.315" cy="147.108" r="1.60663" transform="rotate(172.5 120.315 147.108)" fill="#6E1B35"/>
<circle cx="120.345" cy="42.7432" r="1.60663" transform="rotate(6.66667 120.345 42.7432)" fill="#6E1B35"/>
<circle cx="120.335" cy="153.263" r="1.60663" transform="rotate(173.333 120.335 153.263)" fill="#6E1B35"/>
<circle cx="111.438" cy="101.484" r="1.60663" transform="rotate(120 111.438 101.484)" fill="#6E1B35"/>
<circle cx="111.471" cy="94.5228" r="1.60663" transform="rotate(60 111.471 94.5228)" fill="#6E1B35"/>
<circle cx="111.426" cy="87.5629" r="1.60663" transform="rotate(30 111.426 87.5629)" fill="#6E1B35"/>
<circle cx="111.471" cy="108.443" r="1.60663" transform="rotate(150 111.471 108.443)" fill="#6E1B35"/>
<circle cx="111.445" cy="80.7379" r="1.60663" transform="rotate(20 111.445 80.7379)" fill="#6E1B35"/>
<circle cx="111.447" cy="115.268" r="1.60663" transform="rotate(160 111.447 115.268)" fill="#6E1B35"/>
<circle cx="111.427" cy="74.1415" r="1.60663" transform="rotate(15 111.427 74.1415)" fill="#6E1B35"/>
<circle cx="111.44" cy="121.866" r="1.60663" transform="rotate(165 111.44 121.866)" fill="#6E1B35"/>
<circle cx="111.464" cy="67.6975" r="1.60663" transform="rotate(12 111.464 67.6975)" fill="#6E1B35"/>
<circle cx="111.469" cy="128.309" r="1.60663" transform="rotate(168 111.469 128.309)" fill="#6E1B35"/>
<circle cx="111.465" cy="61.3602" r="1.60663" transform="rotate(10 111.465 61.3602)" fill="#6E1B35"/>
<circle cx="111.451" cy="134.646" r="1.60663" transform="rotate(170 111.451 134.646)" fill="#6E1B35"/>
<circle cx="111.447" cy="55.1006" r="1.60663" transform="rotate(8.57143 111.447 55.1006)" fill="#6E1B35"/>
<circle cx="111.451" cy="140.906" r="1.60663" transform="rotate(171.429 111.451 140.906)" fill="#6E1B35"/>
<circle cx="111.45" cy="48.8993" r="1.60663" transform="rotate(7.5 111.45 48.8993)" fill="#6E1B35"/>
<circle cx="111.446" cy="147.108" r="1.60663" transform="rotate(172.5 111.446 147.108)" fill="#6E1B35"/>
<circle cx="111.476" cy="42.7432" r="1.60663" transform="rotate(6.66667 111.476 42.7432)" fill="#6E1B35"/>
<circle cx="111.466" cy="153.263" r="1.60663" transform="rotate(173.333 111.466 153.263)" fill="#6E1B35"/>
<circle cx="102.569" cy="101.484" r="1.60663" transform="rotate(120 102.569 101.484)" fill="#6E1B35"/>
<circle cx="102.601" cy="94.5228" r="1.60663" transform="rotate(60 102.601 94.5228)" fill="#6E1B35"/>
<circle cx="102.557" cy="87.5629" r="1.60663" transform="rotate(30 102.557 87.5629)" fill="#6E1B35"/>
<circle cx="102.602" cy="108.443" r="1.60663" transform="rotate(150 102.602 108.443)" fill="#6E1B35"/>
<circle cx="102.575" cy="80.7379" r="1.60663" transform="rotate(20 102.575 80.7379)" fill="#6E1B35"/>
<circle cx="102.577" cy="115.268" r="1.60663" transform="rotate(160 102.577 115.268)" fill="#6E1B35"/>
<circle cx="102.558" cy="74.1415" r="1.60663" transform="rotate(15 102.558 74.1415)" fill="#6E1B35"/>
<circle cx="102.571" cy="121.866" r="1.60663" transform="rotate(165 102.571 121.866)" fill="#6E1B35"/>
<circle cx="102.595" cy="67.6975" r="1.60663" transform="rotate(12 102.595 67.6975)" fill="#6E1B35"/>
<circle cx="102.6" cy="128.309" r="1.60663" transform="rotate(168 102.6 128.309)" fill="#6E1B35"/>
<circle cx="102.596" cy="61.3602" r="1.60663" transform="rotate(10 102.596 61.3602)" fill="#6E1B35"/>
<circle cx="102.582" cy="134.646" r="1.60663" transform="rotate(170 102.582 134.646)" fill="#6E1B35"/>
<circle cx="102.578" cy="55.1006" r="1.60663" transform="rotate(8.57143 102.578 55.1006)" fill="#6E1B35"/>
<circle cx="102.582" cy="140.906" r="1.60663" transform="rotate(171.429 102.582 140.906)" fill="#6E1B35"/>
<circle cx="102.58" cy="48.8993" r="1.60663" transform="rotate(7.5 102.58 48.8993)" fill="#6E1B35"/>
<circle cx="102.576" cy="147.108" r="1.60663" transform="rotate(172.5 102.576 147.108)" fill="#6E1B35"/>
<circle cx="102.607" cy="42.7432" r="1.60663" transform="rotate(6.66667 102.607 42.7432)" fill="#6E1B35"/>
<circle cx="102.597" cy="153.263" r="1.60663" transform="rotate(173.333 102.597 153.263)" fill="#6E1B35"/>
<circle cx="93.6998" cy="101.484" r="1.60663" transform="rotate(120 93.6998 101.484)" fill="#6E1B35"/>
<circle cx="93.7322" cy="94.5228" r="1.60663" transform="rotate(60 93.7322 94.5228)" fill="#6E1B35"/>
<circle cx="93.6877" cy="87.5629" r="1.60663" transform="rotate(30 93.6877 87.5629)" fill="#6E1B35"/>
<circle cx="93.733" cy="108.443" r="1.60663" transform="rotate(150 93.733 108.443)" fill="#6E1B35"/>
<circle cx="93.7063" cy="80.7379" r="1.60663" transform="rotate(20 93.7063 80.7379)" fill="#6E1B35"/>
<circle cx="93.7083" cy="115.268" r="1.60663" transform="rotate(160 93.7083 115.268)" fill="#6E1B35"/>
<circle cx="93.6888" cy="74.1415" r="1.60663" transform="rotate(15 93.6888 74.1415)" fill="#6E1B35"/>
<circle cx="93.7022" cy="121.866" r="1.60663" transform="rotate(165 93.7022 121.866)" fill="#6E1B35"/>
<circle cx="93.7258" cy="67.6975" r="1.60663" transform="rotate(12 93.7258 67.6975)" fill="#6E1B35"/>
<circle cx="93.7312" cy="128.309" r="1.60663" transform="rotate(168 93.7312 128.309)" fill="#6E1B35"/>
<circle cx="93.7271" cy="61.3602" r="1.60663" transform="rotate(10 93.7271 61.3602)" fill="#6E1B35"/>
<circle cx="93.713" cy="134.646" r="1.60663" transform="rotate(170 93.713 134.646)" fill="#6E1B35"/>
<circle cx="93.7086" cy="55.1006" r="1.60663" transform="rotate(8.57143 93.7086 55.1006)" fill="#6E1B35"/>
<circle cx="93.7129" cy="140.906" r="1.60663" transform="rotate(171.429 93.7129 140.906)" fill="#6E1B35"/>
<circle cx="93.7113" cy="48.8993" r="1.60663" transform="rotate(7.5 93.7113 48.8993)" fill="#6E1B35"/>
<circle cx="93.7074" cy="147.108" r="1.60663" transform="rotate(172.5 93.7074 147.108)" fill="#6E1B35"/>
<circle cx="93.7374" cy="42.7432" r="1.60663" transform="rotate(6.66667 93.7374 42.7432)" fill="#6E1B35"/>
<circle cx="93.7277" cy="153.263" r="1.60663" transform="rotate(173.333 93.7277 153.263)" fill="#6E1B35"/>
<circle cx="84.8326" cy="101.484" r="1.60663" transform="rotate(120 84.8326 101.484)" fill="#6E1B35"/>
<circle cx="84.8651" cy="94.5228" r="1.60663" transform="rotate(60 84.8651 94.5228)" fill="#6E1B35"/>
<circle cx="84.8205" cy="87.5629" r="1.60663" transform="rotate(30 84.8205 87.5629)" fill="#6E1B35"/>
<circle cx="84.8659" cy="108.443" r="1.60663" transform="rotate(150 84.8659 108.443)" fill="#6E1B35"/>
<circle cx="84.8391" cy="80.7379" r="1.60663" transform="rotate(20 84.8391 80.7379)" fill="#6E1B35"/>
<circle cx="84.8412" cy="115.268" r="1.60663" transform="rotate(160 84.8412 115.268)" fill="#6E1B35"/>
<circle cx="84.8216" cy="74.1415" r="1.60663" transform="rotate(15 84.8216 74.1415)" fill="#6E1B35"/>
<circle cx="84.835" cy="121.866" r="1.60663" transform="rotate(165 84.835 121.866)" fill="#6E1B35"/>
<circle cx="84.8586" cy="67.6975" r="1.60663" transform="rotate(12 84.8586 67.6975)" fill="#6E1B35"/>
<circle cx="84.864" cy="128.309" r="1.60663" transform="rotate(168 84.864 128.309)" fill="#6E1B35"/>
<circle cx="84.8599" cy="61.3602" r="1.60663" transform="rotate(10 84.8599 61.3602)" fill="#6E1B35"/>
<circle cx="84.8458" cy="134.646" r="1.60663" transform="rotate(170 84.8458 134.646)" fill="#6E1B35"/>
<circle cx="84.8414" cy="55.1006" r="1.60663" transform="rotate(8.57143 84.8414 55.1006)" fill="#6E1B35"/>
<circle cx="84.8457" cy="140.906" r="1.60663" transform="rotate(171.429 84.8457 140.906)" fill="#6E1B35"/>
<circle cx="84.8441" cy="48.8993" r="1.60663" transform="rotate(7.5 84.8441 48.8993)" fill="#6E1B35"/>
<circle cx="84.8402" cy="147.108" r="1.60663" transform="rotate(172.5 84.8402 147.108)" fill="#6E1B35"/>
<circle cx="84.8702" cy="42.7432" r="1.60663" transform="rotate(6.66667 84.8702 42.7432)" fill="#6E1B35"/>
<circle cx="84.8605" cy="153.263" r="1.60663" transform="rotate(173.333 84.8605 153.263)" fill="#6E1B35"/>
</g>
<path d="M220.001 122L255.661 122C269.26 122 276.21 128.951 276.211 143.457L276.211 199.667" stroke="#6E1B35" stroke-width="2" stroke-dasharray="4 4"/>
<circle cx="276.512" cy="209.036" r="3.62647" transform="rotate(90 276.512 209.036)" fill="#6E1B35"/>
<g opacity="0.6">
<path d="M60.138 122L24.4777 122C10.8785 122 3.92826 128.951 3.92773 143.457L3.92773 199.667" stroke="#6E1B35" stroke-width="2" stroke-dasharray="4 4"/>
<circle cx="3.62647" cy="3.62647" r="3.62647" transform="matrix(-4.37114e-08 1 1 4.37114e-08 0 205.409)" fill="#6E1B35"/>
</g>
<g opacity="0.6">
<path d="M219.071 90.6621L254.731 90.6621C268.331 90.6621 275.281 83.7114 275.281 69.2055L275.281 12.9952" stroke="#6E1B35" stroke-width="2" stroke-dasharray="4 4"/>
<circle cx="3.62647" cy="3.62647" r="3.62647" transform="matrix(4.37114e-08 -1 -1 -4.37114e-08 279.209 7.25293)" fill="#6E1B35"/>
</g>
<g opacity="0.6">
<path d="M60.138 90.6621L24.4777 90.6621C10.8785 90.6621 3.92826 83.7114 3.92774 69.2055L3.92774 12.9952" stroke="#6E1B35" stroke-width="2" stroke-dasharray="4 4"/>
<circle cx="3.62647" cy="3.62646" r="3.62647" transform="rotate(-90 3.62647 3.62646)" fill="#6E1B35"/>
</g>
</svg>
