<svg width="51" height="246" viewBox="0 0 51 246" fill="none" xmlns="http://www.w3.org/2000/svg">
<g opacity="0.5">
<circle cx="72.5385" cy="72.5385" r="70.5385" transform="matrix(1 0 0 -1 -144.539 195.539)" stroke="#F8D6D1" stroke-width="4"/>
<circle cx="78.8461" cy="78.8461" r="76.8461" transform="matrix(1 0 0 -1 -150.848 201.846)" stroke="#F8D6D1" stroke-width="4"/>
<circle cx="85.1538" cy="85.1538" r="83.1538" transform="matrix(1 0 0 -1 -157.154 208.154)" stroke="#F8D6D1" stroke-width="4"/>
<circle cx="91.4615" cy="91.4615" r="89.4615" transform="matrix(1 0 0 -1 -163.461 214.462)" stroke="#F8D6D1" stroke-width="4"/>
<circle cx="97.7692" cy="97.7692" r="95.7692" transform="matrix(1 0 0 -1 -169.77 220.769)" stroke="#F8D6D1" stroke-width="4"/>
<circle cx="104.077" cy="104.077" r="102.077" transform="matrix(1 0 0 -1 -176.078 227.077)" stroke="#F8D6D1" stroke-width="4"/>
<circle cx="110.385" cy="110.385" r="108.385" transform="matrix(1 0 0 -1 -182.385 233.385)" stroke="#F8D6D1" stroke-width="4"/>
<circle cx="116.692" cy="116.692" r="114.692" transform="matrix(1 0 0 -1 -188.691 239.692)" stroke="#F8D6D1" stroke-width="4"/>
<circle cx="123" cy="123" r="121" transform="matrix(1 0 0 -1 -195 246)" stroke="#F8D6D1" stroke-width="4"/>
</g>
</svg>
