<svg width="340" height="398" viewBox="0 0 340 398" fill="none" xmlns="http://www.w3.org/2000/svg">
<mask id="mask0_172_6718" style="mask-type:luminance" maskUnits="userSpaceOnUse" x="74" y="-86" width="409" height="409">
<ellipse cx="278.504" cy="118.525" rx="203.858" ry="203.916" transform="rotate(30 278.504 118.525)" fill="white"/>
</mask>
<g mask="url(#mask0_172_6718)">
<rect x="198.529" y="-203.791" width="5.09644" height="433.321" transform="rotate(30 198.529 -203.791)" fill="#2FB574" fill-opacity="0.2"/>
<rect x="225.012" y="-188.502" width="5.09644" height="433.321" transform="rotate(30 225.012 -188.502)" fill="#2FB574" fill-opacity="0.2"/>
<rect x="249.285" y="-174.486" width="5.09644" height="433.321" transform="rotate(30 249.285 -174.486)" fill="#2FB574" fill-opacity="0.2"/>
<rect x="275.768" y="-159.197" width="5.09644" height="433.321" transform="rotate(30 275.768 -159.197)" fill="#2FB574" fill-opacity="0.2"/>
<rect x="302.25" y="-143.907" width="5.09644" height="433.321" transform="rotate(30 302.25 -143.907)" fill="#2FB574" fill-opacity="0.2"/>
<rect x="326.523" y="-129.893" width="5.09644" height="433.321" transform="rotate(30 326.523 -129.893)" fill="#2FB574" fill-opacity="0.2"/>
<rect x="353.006" y="-114.604" width="5.09644" height="433.321" transform="rotate(30 353.006 -114.604)" fill="#2FB574" fill-opacity="0.2"/>
<rect x="379.488" y="-99.313" width="5.09644" height="433.321" transform="rotate(30 379.488 -99.313)" fill="#2FB574" fill-opacity="0.2"/>
<rect x="403.764" y="-85.2983" width="5.09644" height="433.321" transform="rotate(30 403.764 -85.2983)" fill="#2FB574" fill-opacity="0.2"/>
<rect x="430.246" y="-70.0083" width="5.09644" height="433.321" transform="rotate(30 430.246 -70.0083)" fill="#2FB574" fill-opacity="0.2"/>
<rect x="456.729" y="-54.7207" width="5.09644" height="433.321" transform="rotate(30 456.729 -54.7207)" fill="#2FB574" fill-opacity="0.2"/>
<rect x="478.797" y="-41.9795" width="5.09644" height="433.321" transform="rotate(30 478.797 -41.9795)" fill="#2FB574" fill-opacity="0.2"/>
<rect x="507.484" y="-25.4146" width="5.09644" height="433.321" transform="rotate(30 507.484 -25.4146)" fill="#2FB574" fill-opacity="0.2"/>
<rect x="531.76" y="-11.3989" width="5.09644" height="433.321" transform="rotate(30 531.76 -11.3989)" fill="#2FB574" fill-opacity="0.2"/>
</g>
</svg>
