<svg width="170" height="222" viewBox="0 0 170 222" fill="none" xmlns="http://www.w3.org/2000/svg">
<mask id="mask0_172_6315" style="mask-type:luminance" maskUnits="userSpaceOnUse" x="39" y="-32" width="214" height="214">
<ellipse cx="146.008" cy="75.0188" rx="106.874" ry="106.904" transform="rotate(30 146.008 75.0188)" fill="white"/>
</mask>
<g mask="url(#mask0_172_6315)">
<rect x="104.08" y="-93.959" width="2.67185" height="227.172" transform="rotate(30 104.08 -93.959)" fill="#2FB574"/>
<rect x="117.963" y="-85.9434" width="2.67185" height="227.172" transform="rotate(30 117.963 -85.9434)" fill="#2FB574"/>
<rect x="130.69" y="-78.5957" width="2.67185" height="227.172" transform="rotate(30 130.69 -78.5957)" fill="#2FB574"/>
<rect x="144.572" y="-70.5801" width="2.67185" height="227.172" transform="rotate(30 144.572 -70.5801)" fill="#2FB574"/>
<rect x="158.455" y="-62.5645" width="2.67185" height="227.172" transform="rotate(30 158.455 -62.5645)" fill="#2FB574"/>
<rect x="171.182" y="-55.2168" width="2.67185" height="227.172" transform="rotate(30 171.182 -55.2168)" fill="#2FB574"/>
<rect x="185.065" y="-47.2012" width="2.67185" height="227.172" transform="rotate(30 185.065 -47.2012)" fill="#2FB574"/>
<rect x="198.947" y="-39.1855" width="2.67185" height="227.172" transform="rotate(30 198.947 -39.1855)" fill="#2FB574"/>
<rect x="211.674" y="-31.8379" width="2.67185" height="227.172" transform="rotate(30 211.674 -31.8379)" fill="#2FB574"/>
<rect x="225.557" y="-23.8223" width="2.67185" height="227.172" transform="rotate(30 225.557 -23.8223)" fill="#2FB574"/>
<rect x="239.443" y="-15.8066" width="2.67185" height="227.172" transform="rotate(30 239.443 -15.8066)" fill="#2FB574"/>
<rect x="251.01" y="-9.12695" width="2.67185" height="227.172" transform="rotate(30 251.01 -9.12695)" fill="#2FB574"/>
<rect x="266.053" y="-0.443359" width="2.67185" height="227.172" transform="rotate(30 266.053 -0.443359)" fill="#2FB574"/>
<rect x="278.776" y="6.9043" width="2.67185" height="227.172" transform="rotate(30 278.776 6.9043)" fill="#2FB574"/>
</g>
</svg>
