<svg width="118" height="127" viewBox="0 0 118 127" fill="none" xmlns="http://www.w3.org/2000/svg">
<g opacity="0.7">
<circle cx="46.2564" cy="46.2564" r="44.2564" transform="matrix(1 0 0 -1 -92.256 210.256)" stroke="#F8D6D1" stroke-width="4"/>
<circle cx="54.6667" cy="54.6667" r="52.6667" transform="matrix(1 0 0 -1 -100.668 218.667)" stroke="#F8D6D1" stroke-width="4"/>
<circle cx="63.0769" cy="63.0769" r="61.0769" transform="matrix(1 0 0 -1 -109.076 227.077)" stroke="#F8D6D1" stroke-width="4"/>
<circle cx="71.4872" cy="71.4872" r="69.4872" transform="matrix(1 0 0 -1 -117.488 235.488)" stroke="#F8D6D1" stroke-width="4"/>
<circle cx="79.8974" cy="79.8974" r="77.8974" transform="matrix(1 0 0 -1 -125.898 243.897)" stroke="#F8D6D1" stroke-width="4"/>
<circle cx="88.3077" cy="88.3077" r="86.3077" transform="matrix(1 0 0 -1 -134.307 252.308)" stroke="#F8D6D1" stroke-width="4"/>
<circle cx="96.7179" cy="96.7179" r="94.7179" transform="matrix(1 0 0 -1 -142.719 260.719)" stroke="#F8D6D1" stroke-width="4"/>
<circle cx="105.128" cy="105.128" r="103.128" transform="matrix(1 0 0 -1 -151.129 269.128)" stroke="#F8D6D1" stroke-width="4"/>
<circle cx="113.538" cy="113.538" r="111.538" transform="matrix(1 0 0 -1 -159.539 277.539)" stroke="#F8D6D1" stroke-width="4"/>
<circle cx="121.949" cy="121.949" r="119.949" transform="matrix(1 0 0 -1 -167.949 285.949)" stroke="#F8D6D1" stroke-width="4"/>
<circle cx="130.359" cy="130.359" r="128.359" transform="matrix(1 0 0 -1 -176.359 294.358)" stroke="#F8D6D1" stroke-width="4"/>
<circle cx="138.769" cy="138.769" r="136.769" transform="matrix(1 0 0 -1 -184.77 302.77)" stroke="#F8D6D1" stroke-width="4"/>
<circle cx="147.179" cy="147.179" r="145.179" transform="matrix(1 0 0 -1 -193.18 311.18)" stroke="#F8D6D1" stroke-width="4"/>
<circle cx="155.59" cy="155.59" r="153.59" transform="matrix(1 0 0 -1 -201.59 319.59)" stroke="#F8D6D1" stroke-width="4"/>
<circle cx="164" cy="164" r="162" transform="matrix(1 0 0 -1 -210 328)" stroke="#F8D6D1" stroke-width="4"/>
</g>
</svg>
